<svg xmlns="http://www.w3.org/2000/svg" width="25" height="25" viewBox="0 0 25 25">
  <path fill="#FFF" fill-rule="evenodd" d="M22.0508036,17.3583984 C22.4739828,17.8792344 24.6222009,20.7763672 24.6222009,20.7763672 L21.1474833,20.7763672 L16.5820536,20.7763672 C16.5820536,21.9319719 16.1751566,22.9166626 15.3613504,23.7304688 C14.5475443,24.5442749 13.5628536,24.9511719 12.4072489,24.9511719 C11.2516441,24.9511719 10.2669535,24.5442749 9.45314731,23.7304688 C8.63934116,22.9166626 8.23244419,21.9319719 8.23244419,20.7763672 L0,20.7763672 C0,20.7763672 3.63445981,16.0685258 4.15529575,15.3442383 C4.67613169,14.6199508 4.93654575,13.8671914 4.93654575,13.0859375 L4.93654575,7.98339844 C4.93654575,6.87662207 5.12778733,5.83903479 5.51027622,4.87060547 C5.89276511,3.90217615 6.41766221,3.05583044 7.08498325,2.33154297 C7.7523043,1.60725549 8.54168442,1.03759973 9.45314731,0.622558594 C10.3646102,0.207517456 11.3411629,0 12.3828348,0 C13.4407828,0 14.4254735,0.207517456 15.3369364,0.622558594 C16.2483993,1.03759973 17.0418484,1.60725549 17.7173075,2.33154297 C18.3927666,3.05583044 18.9217326,3.90217615 19.3042215,4.87060547 C19.6867104,5.83903479 19.877952,6.87662207 19.877952,7.98339844 L19.877952,13.0859375 C19.877952,13.8834675 20.1261592,14.6565718 20.6225809,15.4052734 C21.1190027,16.1539751 21.5950721,16.8050103 22.0508036,17.3583984 Z M12.4072489,23.3154297 C13.1071222,23.3154297 13.7052607,23.0672225 14.2016825,22.5708008 C14.6981042,22.074379 14.9463114,21.4762405 14.9463114,20.7763672 L9.86818638,20.7763672 C9.86818638,21.4762405 10.1163935,22.074379 10.6128153,22.5708008 C11.109237,23.0672225 11.7073756,23.3154297 12.4072489,23.3154297 Z M21.3183817,19.1162109 C21.2370011,19.0022781 21.1474837,18.884278 21.049827,18.762207 C20.9521703,18.6401361 20.854515,18.522136 20.7568583,18.4082031 C20.2197462,17.7571582 19.6622973,16.979985 19.084495,16.0766602 C18.5066926,15.1733353 18.2177958,14.1764377 18.2177958,13.0859375 L18.2177958,7.98339844 C18.2177958,7.10448779 18.0672439,6.28255591 17.7661356,5.51757812 C17.4650273,4.75260034 17.0540614,4.08528931 16.5332254,3.515625 C16.0123895,2.94596069 15.3979751,2.49430505 14.6899637,2.16064453 C13.9819524,1.82698401 13.2129171,1.66015625 12.3828348,1.66015625 C11.5690287,1.66015625 10.8081313,1.82698401 10.10012,2.16064453 C9.39210862,2.49430505 8.77769419,2.94596069 8.25685825,3.515625 C7.73602231,4.08528931 7.32912534,4.75260034 7.03615513,5.51757812 C6.74318491,6.28255591 6.596702,7.10448779 6.596702,7.98339844 L6.596702,13.0859375 C6.596702,14.1438855 6.29152927,15.1163693 5.68117466,16.003418 C5.07082004,16.8904667 4.52964707,17.651364 4.0576395,18.2861328 C3.95998276,18.4163418 3.85825852,18.5546868 3.75246372,18.7011719 C3.64666892,18.847657 3.55308262,18.986002 3.471702,19.1162109 L21.3183817,19.1162109 Z"/>
</svg>
