<svg xmlns="http://www.w3.org/2000/svg" width="17" height="16" viewBox="0 0 17 16">
  <path fill="#999" fill-rule="evenodd" d="M16.859375,15.140625 C16.9531255,15.2343755 17,15.3515618 17,15.4921875 C17,15.6328132 16.9531255,15.7499995 16.859375,15.84375 C16.7552078,15.9479172 16.6354173,16 16.5,16 C16.3645827,16 16.2447922,15.9479172 16.140625,15.84375 L11.296875,10.96875 C10.7447889,11.4479191 10.1197952,11.8229153 9.421875,12.09375 C8.72395484,12.3645847 7.98437891,12.5 7.203125,12.5 C6.33853734,12.5 5.52604547,12.3359391 4.765625,12.0078125 C4.00520453,11.6796859 3.34114867,11.2343778 2.7734375,10.671875 C2.20572633,10.1093722 1.76041828,9.44792047 1.4375,8.6875 C1.11458172,7.92707953 0.953125,7.11458766 0.953125,6.25 C0.953125,5.38541234 1.11458172,4.57292047 1.4375,3.8125 C1.76041828,3.05207953 2.20572633,2.39062781 2.7734375,1.828125 C3.34114867,1.26562219 4.00520453,0.820314141 4.765625,0.4921875 C5.52604547,0.164060859 6.33853734,0 7.203125,0 C8.05729594,0 8.86457953,0.164060859 9.625,0.4921875 C10.3854205,0.820314141 11.0494763,1.26562219 11.6171875,1.828125 C12.1848987,2.39062781 12.6328109,3.05207953 12.9609375,3.8125 C13.2890641,4.57292047 13.453125,5.38541234 13.453125,6.25 C13.453125,7.01042047 13.322918,7.73176742 13.0625,8.4140625 C12.802082,9.09635758 12.4479189,9.70833062 12,10.25 L16.859375,15.140625 Z M7.203125,11.515625 C7.92187859,11.515625 8.6015593,11.3776055 9.2421875,11.1015625 C9.8828157,10.8255195 10.4401018,10.4479191 10.9140625,9.96875 C11.3880232,9.48958094 11.7630195,8.93229484 12.0390625,8.296875 C12.3151055,7.66145516 12.453125,6.97917031 12.453125,6.25 C12.453125,5.52082969 12.3151055,4.83854484 12.0390625,4.203125 C11.7630195,3.56770516 11.3880232,3.01041906 10.9140625,2.53125 C10.4401018,2.05208094 9.8828157,1.67448055 9.2421875,1.3984375 C8.6015593,1.12239445 7.92187859,0.984375 7.203125,0.984375 C6.47395469,0.984375 5.7890657,1.12239445 5.1484375,1.3984375 C4.5078093,1.67448055 3.9505232,2.05208094 3.4765625,2.53125 C3.0026018,3.01041906 2.62760555,3.56770516 2.3515625,4.203125 C2.07551945,4.83854484 1.9375,5.52082969 1.9375,6.25 C1.9375,6.97917031 2.07551945,7.66145516 2.3515625,8.296875 C2.62760555,8.93229484 3.0026018,9.48958094 3.4765625,9.96875 C3.9505232,10.4479191 4.5078093,10.8255195 5.1484375,11.1015625 C5.7890657,11.3776055 6.47395469,11.515625 7.203125,11.515625 Z"/>
</svg>
