<?xml version="1.0" encoding="UTF-8"?>
<svg width="51px" height="51px" viewBox="0 0 51 51" version="1.1" xmlns="http://www.w3.org/2000/svg" xmlns:xlink="http://www.w3.org/1999/xlink">
    <!-- Generator: Sketch 43.1 (39012) - http://www.bohemiancoding.com/sketch -->
    <title>ion-load-c - Ionicons</title>
    <desc>Created with Sketch.</desc>
    <defs></defs>
    <g id="Page-1" stroke="none" stroke-width="1" fill="none" fill-rule="evenodd">
        <path d="M50.0944196,22.3948835 C50.0944196,22.841172 50.0572294,23.1758834 49.982848,23.3990276 C49.3877967,24.5891303 48.5324232,24.8494613 47.416702,24.1800286 C47.0447949,24.0312658 46.7844639,23.6221741 46.6357011,22.9527414 C46.5613196,22.8039785 46.5241295,22.5622426 46.5241295,22.2275262 C46.5241295,21.8928098 46.4869393,21.6138837 46.4125579,21.3907395 C45.9662694,19.2336784 45.1480861,17.0766497 43.9579835,14.9195887 C42.4703552,12.3906206 40.7224182,10.3079722 38.71412,8.67158109 C36.7802032,7.10957138 34.4744139,5.88229644 31.796683,4.98971946 C29.4164777,4.32028672 27.0363081,3.98557538 24.6561028,3.98557538 L24.2098166,3.98557538 C24.0610537,3.98557538 23.875103,4.00417045 23.6519587,4.04136116 C23.4288145,4.07855187 23.2800539,4.09714694 23.2056725,4.09714694 C22.6106212,4.09714694 21.8668182,4.17152724 20.9742412,4.32029007 C19.7097571,4.54343431 18.3337216,4.95252596 16.8460933,5.54757728 C14.5402694,6.44015426 12.4204309,7.7418095 10.4865141,9.45258204 C8.70136014,11.0145918 7.13937386,12.9484795 5.80050839,15.2543034 C4.46164292,17.7088901 3.56907933,20.3122006 3.12279084,23.0643129 C2.97402801,23.8825085 2.89964771,25.1469736 2.89964771,26.8577461 C2.89964771,27.6759417 2.93683786,28.2709841 3.01121927,28.6428912 C3.01121927,28.8660354 3.04840942,29.2193418 3.12279084,29.702821 C3.19717225,30.1863002 3.27155255,30.5396067 3.34593397,30.7627509 C3.94098529,33.5892447 4.98230948,36.0809847 6.46993778,38.2380457 C8.03194749,40.618251 9.81707467,42.5521388 11.8253729,44.0397671 C14.0568153,45.6761582 16.4741751,46.9034332 19.0775246,47.7216287 C21.7552555,48.4654429 24.5817069,48.7257739 27.5569635,48.5026297 C30.3090759,48.2794854 33.0239568,47.5356824 35.7016877,46.2711984 C36.7430275,45.8249099 37.9331123,45.1182971 39.2719778,44.1513387 C40.387699,43.3331431 41.3918331,42.4405795 42.28441,41.4736211 C42.5819357,41.1760954 43.0282175,40.6554333 43.6232688,39.9116192 C43.9207945,39.5397121 44.292696,38.9818599 44.7389845,38.2380457 C45.6315614,36.7504174 46.263794,35.5975228 46.6357011,34.7793272 C47.2307524,33.5892246 47.639844,32.6594708 47.8629883,31.9900381 C48.0117511,31.7668939 48.1605117,31.2834219 48.3092745,30.5396078 C48.3092745,30.3908449 48.3464647,30.1862991 48.4208461,29.9259642 C48.4952275,29.6656292 48.5324177,29.4610834 48.5324177,29.3123206 C48.6811805,30.4280418 48.6439903,31.3949857 48.4208461,32.2131812 C48.2720833,33.1057582 48.1233227,33.7008006 47.9745598,33.9983263 C47.9001784,34.3702333 47.7142277,34.9280856 47.416702,35.6718997 C46.8960321,36.8620024 46.4125602,37.9033266 45.9662717,38.7959036 C45.1480761,40.2091504 44.4042731,41.3248549 43.7348404,42.1430505 C42.5447377,43.481916 41.614984,44.4488599 40.9455513,45.0439112 C39.0860159,46.6059209 36.7802266,47.9447663 34.0281142,49.0604875 C31.4991461,50.0274459 28.7842652,50.5852981 25.88339,50.734061 C23.1312777,50.8828238 20.3420164,50.4737322 17.5155227,49.5067738 C15.1353174,48.7629596 12.7179577,47.5356847 10.263371,45.8249121 C8.10630994,44.2629024 6.24680246,42.4033949 4.68479274,40.2463339 C3.86659718,39.0562313 3.19717448,37.9033366 2.67650458,36.7876154 C2.15583467,35.5231313 1.67236273,34.2958564 1.22607424,33.1057538 C0.631022917,31.2462184 0.25912142,29.16357 0.11035859,26.8577461 C0.035977175,24.7750665 0.221927923,22.6180378 0.668216413,20.3865954 C1.18888632,17.8576273 2.23021051,15.3286971 3.79222022,12.799729 C4.98232286,10.8658122 6.54430915,9.00630471 8.47822594,7.22115075 C10.1889985,5.58475962 12.2344567,4.24591423 14.614662,3.20457442 C17.4411558,1.86570895 20.1932268,1.08471581 22.8709578,0.861571565 C23.6147719,0.78719015 24.6932863,0.75 26.1065332,0.75 C27.147873,0.75 28.5610987,0.898760599 30.3462526,1.19628626 C32.9496021,1.71695616 35.4785323,2.68390005 37.933119,4.09714694 C40.3133243,5.43601241 42.4331628,7.22113959 44.2926982,9.45258204 C46.0034707,11.5352617 47.3423161,13.6922903 48.3092745,15.9237328 C48.6068002,16.6675469 48.9787017,17.8576317 49.4249902,19.4940229 C49.8712787,21.130414 50.0944196,22.0973579 50.0944196,22.3948835 Z" id="ion-load-c---Ionicons" fill="#232F3E"></path>
    </g>
</svg>