<svg xmlns="http://www.w3.org/2000/svg" width="18" height="4" viewBox="0 0 18 4">
  <path fill="#FFF" fill-rule="evenodd" d="M7.70625,0.50625 C8.04375169,0.168748313 8.47499737,0 9,0 C9.52500262,0 9.95624831,0.168748313 10.29375,0.50625 C10.6312517,0.843751687 10.8,1.27499737 10.8,1.8 C10.8,2.32500263 10.6312517,2.75624831 10.29375,3.09375 C9.95624831,3.43125169 9.52500262,3.6 9,3.6 C8.47499737,3.6 8.04375169,3.43125169 7.70625,3.09375 C7.36874831,2.75624831 7.2,2.32500263 7.2,1.8 C7.2,1.27499737 7.36874831,0.843751687 7.70625,0.50625 Z M0.50625,0.50625 C0.843751688,0.168748313 1.27499738,0 1.8,0 C2.32500262,0 2.75624831,0.168748313 3.09375,0.50625 C3.43125169,0.843751687 3.6,1.27499737 3.6,1.8 C3.6,2.32500263 3.43125169,2.75624831 3.09375,3.09375 C2.75624831,3.43125169 2.32500262,3.6 1.8,3.6 C1.27499738,3.6 0.843751688,3.43125169 0.50625,3.09375 C0.168748312,2.75624831 0,2.32500263 0,1.8 C0,1.27499737 0.168748312,0.843751687 0.50625,0.50625 Z M14.90625,0.50625 C15.2437517,0.168748313 15.6749974,0 16.2,0 C16.7250026,0 17.1562483,0.168748313 17.49375,0.50625 C17.8312517,0.843751687 18,1.27499737 18,1.8 C18,2.32500263 17.8312517,2.75624831 17.49375,3.09375 C17.1562483,3.43125169 16.7250026,3.6 16.2,3.6 C15.6749974,3.6 15.2437517,3.43125169 14.90625,3.09375 C14.5687483,2.75624831 14.4,2.32500263 14.4,1.8 C14.4,1.27499737 14.5687483,0.843751687 14.90625,0.50625 Z"/>
</svg>
