<svg xmlns="http://www.w3.org/2000/svg" width="25" height="25" viewBox="0 0 25 25">
  <g fill="#444" fill-rule="evenodd" transform="translate(2)">
    <path d="M13.7468,9.58 C12.8178,10.509 11.7288,10.96 10.4168,10.96 C9.1048,10.96 8.0158,10.509 7.0868,9.58 C6.1578,8.651 5.7068,7.562 5.7068,6.25 C5.7068,4.937 6.1578,3.849 7.0868,2.92 C8.0158,1.991 9.1048,1.54 10.4168,1.54 C11.7288,1.54 12.8178,1.991 13.7468,2.92 C14.6758,3.849 15.1268,4.937 15.1268,6.25 C15.1268,7.562 14.6758,8.651 13.7468,9.58 M14.8358,1.831 C13.6148,0.61 12.1428,0 10.4168,0 C8.6918,0 7.2188,0.61 5.9978,1.831 C4.7768,3.052 4.1668,4.524 4.1668,6.25 C4.1668,7.976 4.7768,9.448 5.9978,10.669 C7.2188,11.89 8.6918,12.5 10.4168,12.5 C12.1428,12.5 13.6148,11.89 14.8358,10.669 C16.0568,9.448 16.6668,7.976 16.6668,6.25 C16.6668,4.524 16.0568,3.052 14.8358,1.831"/>
    <path d="M18.614,22.7675 C18.123,23.3805 17.69,23.4595 17.367,23.4595 L3.467,23.4595 C3.144,23.4595 2.711,23.3805 2.219,22.7675 C1.762,22.1975 1.54,21.5165 1.54,20.6865 C1.54,19.8245 1.583,19.0035 1.669,18.2465 C1.75,17.5235 1.904,16.7825 2.126,16.0435 C2.332,15.3575 2.59,14.7745 2.893,14.3095 C3.15,13.9155 3.484,13.6005 3.917,13.3455 C4.174,13.1945 4.458,13.0925 4.775,13.0395 C6.38,14.3955 8.275,15.0815 10.417,15.0815 C12.559,15.0815 14.454,14.3955 16.059,13.0405 C16.377,13.0925 16.661,13.1945 16.919,13.3465 C17.349,13.6005 17.684,13.9155 17.94,14.3085 C18.243,14.7745 18.501,15.3585 18.708,16.0435 C18.929,16.7825 19.083,17.5235 19.165,18.2465 C19.25,19.0065 19.294,19.8275 19.294,20.6865 C19.294,21.5165 19.072,22.1975 18.614,22.7675 M20.695,18.0745 C20.603,17.2545 20.432,16.4305 20.182,15.6005 C19.933,14.7705 19.615,14.0595 19.23,13.4685 C18.845,12.8765 18.335,12.3945 17.7,12.0195 C17.066,11.6455 16.336,11.4575 15.511,11.4575 C14.09,12.8475 12.392,13.5415 10.417,13.5415 C8.442,13.5415 6.744,12.8475 5.322,11.4575 C4.498,11.4575 3.768,11.6455 3.134,12.0195 C2.499,12.3945 1.989,12.8765 1.603,13.4685 C1.218,14.0595 0.901,14.7705 0.651,15.6005 C0.402,16.4305 0.231,17.2545 0.138,18.0745 C0.046,18.8935 0,19.7645 0,20.6865 C0,21.8695 0.339,22.8835 1.017,23.7305 C1.696,24.5775 2.512,24.9995 3.467,24.9995 L17.367,24.9995 C18.322,24.9995 19.138,24.5775 19.816,23.7305 C20.494,22.8835 20.834,21.8695 20.834,20.6865 C20.834,19.7645 20.787,18.8935 20.695,18.0745"/>
  </g>
</svg>
