<svg xmlns="http://www.w3.org/2000/svg" width="95" height="95" viewBox="0 0 95 95">
  <g fill="none" fill-rule="evenodd" transform="translate(2 1)">
    <rect width="83" height="83" x="4" y="5" fill="#FFF"/>
    <path stroke="#5E80A8" stroke-linecap="square" stroke-width="6" d="M90 2L90 91M1 2L1 91M6 2L85 2M6 91L85 91"/>
    <path fill="#5E80A8" d="M64.3571878,41.2887943 C64.3571878,39.8691498 63.2054007,38.7173627 61.7857562,38.7173627 L50.6428858,38.7173627 L50.6428858,27.5744923 C50.6428858,26.1548477 49.4910987,25.0030606 48.0714541,25.0030606 L42.9285908,25.0030606 C41.5089463,25.0030606 40.3571592,26.1548477 40.3571592,27.5744923 L40.3571592,38.7173627 L29.2142888,38.7173627 C27.7946442,38.7173627 26.6428571,39.8691498 26.6428571,41.2887943 L26.6428571,46.4316576 C26.6428571,47.8513022 27.7946442,49.0030892 29.2142888,49.0030892 L40.3571592,49.0030892 L40.3571592,60.1459597 C40.3571592,61.5656042 41.5089463,62.7173913 42.9285908,62.7173913 L48.0714541,62.7173913 C49.4910987,62.7173913 50.6428858,61.5656042 50.6428858,60.1459597 L50.6428858,49.0030892 L61.7857562,49.0030892 C63.2054007,49.0030892 64.3571878,47.8513022 64.3571878,46.4316576 L64.3571878,41.2887943 Z"/>
  </g>
</svg>
