<svg xmlns="http://www.w3.org/2000/svg" width="25" height="25" viewBox="0 0 25 25">
  <path fill="#FFF" fill-rule="evenodd" d="M24.7809153,23.5881207 C24.9269725,23.7341779 25,23.9167467 25,24.1358325 C25,24.3549183 24.9269725,24.5374871 24.7809153,24.6835443 C24.6186295,24.8458301 24.4320037,24.9269718 24.2210321,24.9269718 C24.0100606,24.9269718 23.8234348,24.8458301 23.661149,24.6835443 L16.1148978,17.0886076 C15.2547831,17.8351222 14.281083,18.4193423 13.1937683,18.8412853 C12.1064535,19.2632283 10.9542417,19.4741967 9.73709834,19.4741967 C8.39012634,19.4741967 7.12431621,19.2186004 5.93962999,18.7074002 C4.75494377,18.1962 3.72038741,17.5024387 2.83592989,16.6260954 C1.95147237,15.7497522 1.25771105,14.7192529 0.754625122,13.5345667 C0.251539192,12.3498805 0,11.0840704 0,9.73709834 C0,8.39012634 0.251539192,7.12431621 0.754625122,5.93962999 C1.25771105,4.75494377 1.95147237,3.7244445 2.83592989,2.84810127 C3.72038741,1.97175803 4.75494377,1.27799671 5.93962999,0.766796495 C7.12431621,0.255596276 8.39012634,0 9.73709834,0 C11.0678418,0 12.3255377,0.255596276 13.510224,0.766796495 C14.6949102,1.27799671 15.7294665,1.97175803 16.6139241,2.84810127 C17.4983816,3.7244445 18.1962,4.75494377 18.7074002,5.93962999 C19.2186004,7.12431621 19.4741967,8.39012634 19.4741967,9.73709834 C19.4741967,10.9217846 19.2713425,12.0455968 18.865628,13.1085686 C18.4599136,14.1715405 17.9081502,15.1249552 17.2103213,15.9688413 L24.7809153,23.5881207 Z M9.73709834,17.9406037 C10.8568703,17.9406037 11.9157691,17.7255783 12.9138267,17.2955209 C13.9118843,16.8654636 14.7801002,16.2771865 15.5185005,15.5306719 C16.2569008,14.7841573 16.8411209,13.9159413 17.2711782,12.9259981 C17.7012355,11.9360548 17.916261,10.8730988 17.916261,9.73709834 C17.916261,8.60109786 17.7012355,7.53814192 17.2711782,6.54819864 C16.8411209,5.55825536 16.2569008,4.69003944 15.5185005,3.94352483 C14.7801002,3.19701022 13.9118843,2.60873308 12.9138267,2.17867575 C11.9157691,1.74861843 10.8568703,1.53359299 9.73709834,1.53359299 C8.60109786,1.53359299 7.53408483,1.74861843 6.53602726,2.17867575 C5.53796969,2.60873308 4.66975377,3.19701022 3.93135346,3.94352483 C3.19295314,4.69003944 2.60873308,5.55825536 2.17867575,6.54819864 C1.74861843,7.53814192 1.53359299,8.60109786 1.53359299,9.73709834 C1.53359299,10.8730988 1.74861843,11.9360548 2.17867575,12.9259981 C2.60873308,13.9159413 3.19295314,14.7841573 3.93135346,15.5306719 C4.66975377,16.2771865 5.53796969,16.8654636 6.53602726,17.2955209 C7.53408483,17.7255783 8.60109786,17.9406037 9.73709834,17.9406037 Z"/>
</svg>
