<svg xmlns="http://www.w3.org/2000/svg" width="25" height="25" viewBox="0 0 25 25">
  <g fill="#FFF" fill-rule="evenodd">
    <path d="M10.8188 9.9131C10.1898 10.5421 9.4828 10.8351 8.5938 10.8351 7.7048 10.8351 6.9968 10.5421 6.3678 9.9131 5.7388 9.2841 5.4458 8.5761 5.4458 7.6871 5.4458 6.7991 5.7388 6.0911 6.3688 5.4611 6.9968 4.8331 7.7048 4.5401 8.5938 4.5401 9.4828 4.5401 10.1898 4.8331 10.8188 5.4621 11.4478 6.0911 11.7408 6.7981 11.7408 7.6871 11.7408 8.5771 11.4478 9.2841 10.8188 9.9131M11.9078 4.3731C10.9918 3.4581 9.8878 3.0001 8.5938 3.0001 7.2998 3.0001 6.1948 3.4581 5.2788 4.3731 4.3638 5.2891 3.9058 6.3931 3.9058 7.6871 3.9058 8.9811 4.3638 10.0861 5.2788 11.0021 6.1948 11.9171 7.2998 12.3751 8.5938 12.3751 9.8878 12.3751 10.9918 11.9171 11.9078 11.0021 12.8228 10.0861 13.2808 8.9811 13.2808 7.6871 13.2808 6.3931 12.8228 5.2891 11.9078 4.3731M20.3125 13.9375L24.6095 13.9375C24.7155 13.9375 24.8065 13.9765 24.8835 14.0535 24.9615 14.1305 24.9995 14.2225 24.9995 14.3285L24.9995 16.6715C24.9995 16.7775 24.9615 16.8695 24.8835 16.9465 24.8065 17.0235 24.7155 17.0625 24.6095 17.0625L20.3125 17.0625 20.3125 21.3595C20.3125 21.4655 20.2735 21.5565 20.1965 21.6335 20.1195 21.7115 20.0275 21.7495 19.9215 21.7495L17.5785 21.7495C17.4725 21.7495 17.3805 21.7115 17.3035 21.6335 17.2265 21.5565 17.1875 21.4655 17.1875 21.3595L17.1875 17.0625 12.8905 17.0625C12.7845 17.0625 12.6935 17.0235 12.6165 16.9465 12.5385 16.8695 12.5005 16.7775 12.5005 16.6715L12.5005 14.3285C12.5005 14.2225 12.5385 14.1305 12.6165 14.0535 12.6935 13.9765 12.7845 13.9375 12.8905 13.9375L17.1875 13.9375 17.1875 9.6405C17.1875 9.5345 17.2265 9.4435 17.3035 9.3665 17.3805 9.2885 17.4725 9.2505 17.5785 9.2505L19.9215 9.2505C20.0275 9.2505 20.1195 9.2885 20.1965 9.3665 20.2735 9.4435 20.3125 9.5345 20.3125 9.6405L20.3125 13.9375z"/>
    <path d="M14.4756,20.1611 C14.3116,20.1941 14.1296,20.2101 13.9286,20.2101 L3.2596,20.2101 C2.4846,20.2101 2.1406,19.9691 1.9486,19.7881 C1.7736,19.6221 1.5396,19.3181 1.5396,18.5881 C1.5396,18.1941 1.5526,17.8081 1.5796,17.4331 C1.6036,17.0761 1.6546,16.6841 1.7286,16.2661 C1.8036,15.8561 1.8956,15.4761 2.0036,15.1401 C2.1016,14.8351 2.2346,14.5321 2.4006,14.2401 C2.5456,13.9861 2.7076,13.7721 2.8836,13.6031 C3.0246,13.4681 3.2036,13.3591 3.4296,13.2701 C3.5806,13.2101 3.7486,13.1691 3.9326,13.1491 C4.6546,13.6841 5.3376,14.0751 6.0086,14.3461 C6.8036,14.6671 7.6736,14.8301 8.5936,14.8301 C9.0026,14.8301 9.4016,14.7981 9.7886,14.7341 L9.7886,16.6721 C9.7886,17.5041 10.1046,18.2611 10.7036,18.8591 C11.3016,19.4581 12.0586,19.7741 12.8906,19.7741 L14.4756,19.7741 L14.4756,20.1611 Z M12.8906,18.2341 C12.4676,18.2341 12.1006,18.0791 11.7916,17.7701 C11.4826,17.4611 11.3286,17.0951 11.3286,16.6721 L11.3286,14.3281 C11.3286,13.9051 11.4826,13.5381 11.7916,13.2291 C12.1006,12.9201 12.4676,12.7651 12.8906,12.7651 L15.6126,12.7651 C14.9206,11.9841 14.0386,11.5941 12.9636,11.5941 C12.8086,11.5941 12.6506,11.6631 12.4876,11.8011 C11.8446,12.2981 11.2166,12.6701 10.6016,12.9181 C9.9876,13.1661 9.3176,13.2901 8.5936,13.2901 C7.8696,13.2901 7.2006,13.1661 6.5856,12.9181 C5.9716,12.6701 5.3426,12.2981 4.6996,11.8011 C4.5376,11.6631 4.3786,11.5941 4.2236,11.5941 C3.7266,11.5941 3.2736,11.6751 2.8626,11.8381 C2.4516,12.0001 2.1036,12.2181 1.8186,12.4911 C1.5346,12.7641 1.2816,13.0931 1.0616,13.4791 C0.8426,13.8661 0.6676,14.2631 0.5376,14.6701 C0.4066,15.0771 0.2986,15.5181 0.2136,15.9941 C0.1276,16.4711 0.0716,16.9141 0.0426,17.3251 C0.0146,17.7361 -0.0004,18.1571 -0.0004,18.5881 C-0.0004,19.5731 0.2966,20.3461 0.8916,20.9081 C1.4856,21.4691 2.2746,21.7501 3.2596,21.7501 L13.9286,21.7501 C14.7666,21.7501 15.4626,21.5461 16.0156,21.1401 L16.0156,18.2341 L12.8906,18.2341 Z"/>
    <path d="M19.2708333,12.4166667 C19.2708333,12.6987861 19.1677528,12.9429243 18.9615885,13.1490885 L10.1074219,22.0032552 C9.90125765,22.2094194 9.65711947,22.3125 9.375,22.3125 C9.09288053,22.3125 8.84874235,22.2094194 8.64257812,22.0032552 C8.4364139,21.797091 8.33333333,21.5529528 8.33333333,21.2708333 L8.33333333,16.5833333 L1.04166667,16.5833333 C0.759547201,16.5833333 0.515409017,16.4802528 0.309244792,16.2740885 C0.103080566,16.0679243 0,15.8237861 0,15.5416667 L0,9.29166667 C0,9.0095472 0.103080566,8.76540902 0.309244792,8.55924479 C0.515409017,8.35308057 0.759547201,8.25 1.04166667,8.25 L8.33333333,8.25 L8.33333333,3.5625 C8.33333333,3.28038053 8.4364139,3.03624235 8.64257812,2.83007812 C8.84874235,2.6239139 9.09288053,2.52083333 9.375,2.52083333 C9.65711947,2.52083333 9.90125765,2.6239139 10.1074219,2.83007812 L18.9615885,11.6842448 C19.1677528,11.890409 19.2708333,12.1345472 19.2708333,12.4166667 Z"/>
    <path d="M25,6.6875 L25,18.1458333 C25,19.4370724 24.5415627,20.5411195 23.6246745,21.4580078 C22.7077862,22.3748961 21.6037391,22.8333333 20.3125,22.8333333 L15.1041667,22.8333333 C14.9631069,22.8333333 14.8410378,22.7817931 14.7379557,22.6787109 C14.6348736,22.5756288 14.5833333,22.4535597 14.5833333,22.3125 C14.5833333,22.269097 14.577908,22.1605911 14.5670573,21.9869792 C14.5562065,21.8133672 14.5534939,21.6695969 14.5589193,21.5556641 C14.5643446,21.4417312 14.5806205,21.3142368 14.6077474,21.1731771 C14.6348743,21.0321174 14.6891272,20.9263241 14.7705078,20.8557943 C14.8518884,20.7852644 14.9631069,20.75 15.1041667,20.75 L20.3125,20.75 C21.0286494,20.75 21.6417075,20.4950112 22.1516927,19.985026 C22.6616779,19.4750409 22.9166667,18.8619827 22.9166667,18.1458333 L22.9166667,6.6875 C22.9166667,5.97135059 22.6616779,5.35829248 22.1516927,4.84830729 C21.6417075,4.3383221 21.0286494,4.08333333 20.3125,4.08333333 L15.234375,4.08333333 C15.2018228,4.08333333 15.1394319,4.07790804 15.0472005,4.06705729 C14.9549692,4.05620654 14.8925783,4.03993066 14.860026,4.01822917 C14.8274738,3.99652767 14.7840715,3.96668856 14.7298177,3.92871094 C14.675564,3.89073332 14.6375869,3.84190568 14.6158854,3.78222656 C14.5941839,3.72254744 14.5833333,3.64930599 14.5833333,3.5625 C14.5833333,3.51909701 14.577908,3.41059115 14.5670573,3.23697917 C14.5562065,3.06336719 14.5534939,2.91959692 14.5589193,2.80566406 C14.5643446,2.6917312 14.5806205,2.56423682 14.6077474,2.42317708 C14.6348743,2.28211735 14.6891272,2.17632414 14.7705078,2.10579427 C14.8518884,2.0352644 14.9631069,2 15.1041667,2 L20.3125,2 C21.6037391,2 22.7077862,2.45843726 23.6246745,3.37532552 C24.5415627,4.29221379 25,5.3962609 25,6.6875 Z"/>
  </g>
</svg>
