<svg xmlns="http://www.w3.org/2000/svg" width="25" height="25" viewBox="0 0 25 25">
  <defs>
    <linearGradient id="notificatons-icon-selected-a" x1="50%" x2="50%" y1="0%" y2="100%">
      <stop offset="0%" stop-color="#FF9833"/>
      <stop offset="100%" stop-color="#EB6A2F"/>
    </linearGradient>
  </defs>
  <path fill="url(#notificatons-icon-selected-a)" fill-rule="evenodd" d="M4.871,18.396 C5.29,17.823 5.758,17.162 6.274,16.412 C6.966,15.406 7.317,14.287 7.317,13.086 L7.317,7.983 C7.317,7.197 7.449,6.454 7.708,5.775 C7.967,5.099 8.33,4.502 8.788,4.001 C9.243,3.504 9.788,3.104 10.407,2.812 C11.015,2.525 11.68,2.38 12.383,2.38 C13.101,2.38 13.775,2.525 14.383,2.812 C15.003,3.104 15.547,3.504 16.001,4.001 C16.461,4.504 16.829,5.103 17.096,5.781 C17.363,6.458 17.497,7.199 17.497,7.983 L17.497,13.086 C17.497,14.311 17.828,15.447 18.478,16.464 C18.937,17.183 19.39,17.83 19.827,18.396 L4.871,18.396 Z M13.692,22.062 C13.333,22.421 12.913,22.595 12.407,22.595 C11.901,22.595 11.481,22.421 11.122,22.062 C10.949,21.888 10.818,21.701 10.73,21.497 L14.084,21.497 C13.996,21.701 13.866,21.888 13.692,22.062 L13.692,22.062 Z M22.051,17.358 C21.595,16.805 21.119,16.154 20.622,15.405 C20.126,14.657 19.878,13.883 19.878,13.086 L19.878,7.983 C19.878,6.876 19.687,5.839 19.304,4.871 C18.922,3.902 18.393,3.056 17.717,2.332 C17.042,1.607 16.248,1.038 15.337,0.623 C14.426,0.208 13.441,0 12.383,0 C11.341,0 10.365,0.208 9.453,0.623 C8.542,1.038 7.752,1.607 7.085,2.332 C6.418,3.056 5.893,3.902 5.51,4.871 C5.128,5.839 4.936,6.876 4.936,7.983 L4.936,13.086 C4.936,13.867 4.676,14.62 4.155,15.344 C3.635,16.068 0,20.776 0,20.776 L8.232,20.776 C8.232,21.932 8.64,22.917 9.453,23.73 C10.267,24.544 11.252,24.951 12.407,24.951 C13.563,24.951 14.548,24.544 15.361,23.73 C16.175,22.917 16.582,21.932 16.582,20.776 L21.147,20.776 L24.622,20.776 C24.622,20.776 22.474,17.879 22.051,17.358 L22.051,17.358 Z"/>
</svg>
