<svg xmlns="http://www.w3.org/2000/svg" width="46" height="46" viewBox="0 0 46 46">
  <g fill="none" fill-rule="evenodd">
    <rect width="46" height="46" fill="#D8D8D8"/>
    <path fill="#FFF" d="M28.99968,17.00012 C28.99968,18.6571131 28.4140683,20.0702614 27.2418848,21.2424448 C26.0697014,22.4146283 24.6565531,23.00024 22.99956,23.00024 C21.3435269,23.00024 19.9294186,22.4146283 18.7572351,21.2424448 C17.5850517,20.0702614 16.99944,18.6571131 16.99944,17.00012 C16.99944,15.3431269 17.5850517,13.9299786 18.7572351,12.7577952 C19.9294186,11.5856117 21.3435269,11 22.99956,11 C24.6565531,11 26.0697014,11.5856117 27.2418848,12.7577952 C28.4140683,13.9299786 28.99968,15.3431269 28.99968,17.00012 Z M33.00008,30.8594372 C33.00008,31.9951399 32.6746335,32.9685994 32.0227805,33.7817356 C31.3718874,34.5948719 30.5885118,35 29.6716934,35 L16.3274265,35 C15.4106082,35 14.6272325,34.5948719 13.9763395,33.7817356 C13.3244865,32.9685994 13,31.9951399 13,30.8594372 C13,29.9742995 13.0432009,29.1381228 13.1324826,28.351867 C13.2208044,27.5646513 13.3849677,26.7735955 13.6240125,25.9767795 C13.8640173,25.1799636 14.1683434,24.4973899 14.5389108,23.9300186 C14.9085182,23.3616872 15.398128,22.898958 16.0077402,22.5389508 C16.6173523,22.1799036 17.3172063,21.99942 18.1092222,21.99942 C19.4734095,23.3338467 21.1035221,24.0001 22.99956,24.0001 C24.8955979,24.0001 26.5257105,23.3338467 27.8908578,21.99942 C28.6819136,21.99942 29.3827277,22.1799036 29.9923398,22.5389508 C30.600992,22.898958 31.0906018,23.3616872 31.4602092,23.9300186 C31.8307766,24.4973899 32.1351027,25.1799636 32.3751075,25.9767795 C32.6141523,26.7735955 32.7783156,27.5646513 32.8666373,28.351867 C32.9559191,29.1381228 33.00008,29.9742995 33.00008,30.8594372 Z"/>
  </g>
</svg>
