<svg xmlns="http://www.w3.org/2000/svg" width="22" height="20" viewBox="0 0 22 20">
  <g fill="none" fill-rule="evenodd" transform="translate(-16 -14)">
    <rect width="54" height="48"/>
    <path fill="#FF7F00" d="M24.6625,22.6739583 C25.3118088,22.0246495 26.0909677,21.7 27,21.7 C27.9090323,21.7 28.6862815,22.0227398 29.3317708,22.6682292 C29.9772602,23.3137185 30.3,24.0909677 30.3,25 C30.3,25.9090323 29.9772602,26.6862815 29.3317708,27.3317708 C28.6862815,27.9772602 27.9090323,28.3 27,28.3 C26.0909677,28.3 25.3137185,27.9772602 24.6682292,27.3317708 C24.0227398,26.6862815 23.7,25.9090323 23.7,25 C23.7,24.0909677 24.0208301,23.3156282 24.6625,22.6739583 Z M35.0666667,16.9333333 C35.8763929,16.9333333 36.5677055,17.2197888 37.140625,17.7927083 C37.7135445,18.3656279 38,19.0569404 38,19.8666667 L38,30.1333333 C38,30.9430596 37.7135445,31.6343721 37.140625,32.2072917 C36.5677055,32.7802112 35.8763929,33.0666667 35.0666667,33.0666667 L18.9333333,33.0666667 C18.1236071,33.0666667 17.4322945,32.7802112 16.859375,32.2072917 C16.2864555,31.6343721 16,30.9430596 16,30.1333333 L16,19.8666667 C16,19.0569404 16.2864555,18.3656279 16.859375,17.7927083 C17.4322945,17.2197888 18.1236071,16.9333333 18.9333333,16.9333333 L21.5,16.9333333 L22.084375,15.375 C22.2295146,15.0006926 22.4949633,14.6779527 22.8807292,14.4067708 C23.266495,14.1355889 23.6618035,14 24.0666667,14 L29.9333333,14 C30.3381965,14 30.733505,14.1355889 31.1192708,14.4067708 C31.5050367,14.6779527 31.7704854,15.0006926 31.915625,15.375 L32.5,16.9333333 L35.0666667,16.9333333 Z M23.3677083,28.6322917 C24.3760467,29.6329911 25.5867985,30.1333333 27,30.1333333 C28.4132015,30.1333333 29.6220436,29.6310814 30.6265625,28.6265625 C31.6310814,27.6220436 32.1333333,26.4132015 32.1333333,25 C32.1333333,23.5867985 31.6310814,22.3779564 30.6265625,21.3734375 C29.6220436,20.3689186 28.4132015,19.8666667 27,19.8666667 C25.5867985,19.8666667 24.3779564,20.3689186 23.3734375,21.3734375 C22.3689186,22.3779564 21.8666667,23.5867985 21.8666667,25 C21.8666667,26.4132015 22.3670089,27.6239533 23.3677083,28.6322917 Z"/>
  </g>
</svg>
