<svg xmlns="http://www.w3.org/2000/svg" width="17" height="17" viewBox="0 0 17 17">
  <path fill="#999" fill-rule="evenodd" d="M8.125,0.375 C10.3645945,0.375 12.2786379,1.16926289 13.8671875,2.7578125 C15.4557371,4.34636211 16.25,6.26040547 16.25,8.5 C16.25,10.7395945 15.4557371,12.6536379 13.8671875,14.2421875 C12.2786379,15.8307371 10.3645945,16.625 8.125,16.625 C5.88540547,16.625 3.97136211,15.8307371 2.3828125,14.2421875 C0.794262891,12.6536379 0,10.7395945 0,8.5 C0,6.26040547 0.794262891,4.34636211 2.3828125,2.7578125 C3.97136211,1.16926289 5.88540547,0.375 8.125,0.375 Z M12.1875,11.4296875 L9.2578125,8.5 L12.1875,5.5703125 L11.0546875,4.4375 L8.125,7.3671875 L5.1953125,4.4375 L4.0625,5.5703125 L6.9921875,8.5 L4.0625,11.4296875 L5.1953125,12.5625 L8.125,9.6328125 L11.0546875,12.5625 L12.1875,11.4296875 Z"/>
</svg>
