<svg xmlns="http://www.w3.org/2000/svg" width="25" height="25" viewBox="0 0 25 25">
  <g fill="#FFF" fill-rule="evenodd">
    <path d="M15.7468,9.58 C14.8178,10.509 13.7288,10.96 12.4168,10.96 C11.1048,10.96 10.0158,10.509 9.0868,9.58 C8.1578,8.651 7.7068,7.562 7.7068,6.25 C7.7068,4.937 8.1578,3.849 9.0868,2.92 C10.0158,1.991 11.1048,1.54 12.4168,1.54 C13.7288,1.54 14.8178,1.991 15.7468,2.92 C16.6758,3.849 17.1268,4.937 17.1268,6.25 C17.1268,7.562 16.6758,8.651 15.7468,9.58 M16.8358,1.831 C15.6148,0.61 14.1428,0 12.4168,0 C10.6918,0 9.2188,0.61 7.9978,1.831 C6.7768,3.052 6.1668,4.524 6.1668,6.25 C6.1668,7.976 6.7768,9.448 7.9978,10.669 C9.2188,11.89 10.6918,12.5 12.4168,12.5 C14.1428,12.5 15.6148,11.89 16.8358,10.669 C18.0568,9.448 18.6668,7.976 18.6668,6.25 C18.6668,4.524 18.0568,3.052 16.8358,1.831"/>
    <path d="M20.614,22.7675 C20.123,23.3805 19.69,23.4595 19.367,23.4595 L5.467,23.4595 C5.144,23.4595 4.711,23.3805 4.219,22.7675 C3.762,22.1975 3.54,21.5165 3.54,20.6865 C3.54,19.8245 3.583,19.0035 3.669,18.2465 C3.75,17.5235 3.904,16.7825 4.126,16.0435 C4.332,15.3575 4.59,14.7745 4.893,14.3095 C5.15,13.9155 5.484,13.6005 5.917,13.3455 C6.174,13.1945 6.458,13.0925 6.775,13.0395 C8.38,14.3955 10.275,15.0815 12.417,15.0815 C14.559,15.0815 16.454,14.3955 18.059,13.0405 C18.377,13.0925 18.661,13.1945 18.919,13.3465 C19.349,13.6005 19.684,13.9155 19.94,14.3085 C20.243,14.7745 20.501,15.3585 20.708,16.0435 C20.929,16.7825 21.083,17.5235 21.165,18.2465 C21.25,19.0065 21.294,19.8275 21.294,20.6865 C21.294,21.5165 21.072,22.1975 20.614,22.7675 M22.695,18.0745 C22.603,17.2545 22.432,16.4305 22.182,15.6005 C21.933,14.7705 21.615,14.0595 21.23,13.4685 C20.845,12.8765 20.335,12.3945 19.7,12.0195 C19.066,11.6455 18.336,11.4575 17.511,11.4575 C16.09,12.8475 14.392,13.5415 12.417,13.5415 C10.442,13.5415 8.744,12.8475 7.322,11.4575 C6.498,11.4575 5.768,11.6455 5.134,12.0195 C4.499,12.3945 3.989,12.8765 3.603,13.4685 C3.218,14.0595 2.901,14.7705 2.651,15.6005 C2.402,16.4305 2.231,17.2545 2.138,18.0745 C2.046,18.8935 2,19.7645 2,20.6865 C2,21.8695 2.339,22.8835 3.017,23.7305 C3.696,24.5775 4.512,24.9995 5.467,24.9995 L19.367,24.9995 C20.322,24.9995 21.138,24.5775 21.816,23.7305 C22.494,22.8835 22.834,21.8695 22.834,20.6865 C22.834,19.7645 22.787,18.8935 22.695,18.0745"/>
  </g>
</svg>
