<svg xmlns="http://www.w3.org/2000/svg" width="28" height="28" viewBox="0 0 28 28">
  <g fill="none" fill-rule="evenodd" transform="translate(-1 -1)">
    <path stroke="#979797" stroke-linecap="square" d="M1.5 1.5L28.5 1.5M28.5 1.5L28.5 28.5M1.5 1.5L1.5 28.5M1.5 28.5L28.5 28.5"/>
    <path stroke="#FFF" stroke-linecap="square" d="M2.5 2.5L2.5 27.5M2.5 27.5L27.5 27.5M27.5 2.5L27.5 27.5M2.5 2.5L27.5 2.5"/>
    <polygon fill="#FF7F00" points="27 27 3 27 3 3 27 3"/>
    <path fill="#FFF" d="M13.746888,21.6887967 L23.9377593,11.4979253 C24.3526971,11.0829876 24.3526971,10.4190871 23.9377593,10.0041494 L22.2448133,8.31120332 C21.8298755,7.89626556 21.1659751,7.89626556 20.7510373,8.31120332 L13,16.0622407 L9.49792531,12.560166 C9.08298755,12.1452282 8.41908714,12.1452282 8.00414938,12.560166 L6.31120332,14.253112 C5.89626556,14.6680498 5.89626556,15.3319502 6.31120332,15.746888 L12.253112,21.6887967 C12.6680498,22.1037344 13.3319502,22.1037344 13.746888,21.6887967 Z"/>
  </g>
</svg>
