<svg xmlns="http://www.w3.org/2000/svg" width="25" height="25" viewBox="0 0 25 25">
  <defs>
    <linearGradient id="search-icon-selected-a" x1="50%" x2="50%" y1="0%" y2="100%">
      <stop offset="0%" stop-color="#FF9833"/>
      <stop offset="100%" stop-color="#EB6A2F"/>
    </linearGradient>
  </defs>
  <path fill="url(#search-icon-selected-a)" fill-rule="evenodd" d="M15.8658449,12.3165139 C15.5138025,13.1272439 15.0311154,13.8462307 14.4297511,14.4535303 C13.8333732,15.0558438 13.1193155,15.5384924 12.3085208,15.8875152 C11.4967289,16.2375351 10.6560156,16.4080576 9.73851125,16.4080576 C8.81901229,16.4080576 7.94638583,16.2325491 7.14456678,15.8875152 C6.33377214,15.5384924 5.62071166,15.0558438 5.02333652,14.4535303 C4.42296952,13.8462307 3.94028243,13.1272439 3.5872427,12.3165139 C3.24417584,11.5247309 3.06965055,10.6571601 3.06965055,9.73873167 C3.06965055,8.82030326 3.24417584,7.95273245 3.5872427,7.16094943 C3.94028243,6.35021946 4.42296952,5.63123262 5.02333652,5.02493026 C5.62071166,4.42161952 6.33377214,3.93897093 7.14456678,3.58994819 C7.94638583,3.24491428 8.81901229,3.07040291 9.73851125,3.07040291 C10.6560156,3.07040291 11.4967289,3.23992824 12.3085208,3.58994819 C13.1193155,3.93897093 13.8333732,4.42161952 14.4297511,5.02493026 C15.0311154,5.63123262 15.5138025,6.35021946 15.8658449,7.16094943 C16.209909,7.95273245 16.3844343,8.82030326 16.3844343,9.73873167 C16.3844343,10.6571601 16.209909,11.5247309 15.8658449,12.3165139 M24.7805968,21.4070605 C24.7805968,21.4070605 19.2975108,15.8994816 18.1047551,14.701835 C18.4009494,14.2022339 18.6552577,13.6717194 18.8696745,13.1102913 C19.2745732,12.0472678 19.4780198,10.9234146 19.4780198,9.73873167 C19.4780198,8.39150389 19.2227142,7.12504995 18.7111058,5.94036704 C18.1994974,4.75568414 17.5023935,3.72556845 16.6168023,2.84902277 C15.7322084,1.97247709 14.6980214,1.27842044 13.513244,0.766852821 C12.3284666,0.256282412 11.0698899,0 9.73851125,0 C8.391176,0 7.12561832,0.256282412 5.94084091,0.766852821 C4.75606351,1.27842044 3.72087921,1.97247709 2.8362853,2.84902277 C1.9516914,3.72556845 1.25757938,4.75568414 0.754946545,5.94036704 C0.251316419,7.12504995 0,8.39150389 0,9.73873167 C0,11.0859594 0.251316419,12.3524134 0.754946545,13.5370963 C1.25757938,14.7217792 1.9516914,15.7518949 2.8362853,16.6284406 C3.72087921,17.5049863 4.75606351,18.1990429 5.94084091,18.7106105 C7.12561832,19.2211809 8.391176,19.4774633 9.73851125,19.4774633 C10.9561991,19.4774633 12.1090633,19.2660553 13.1961066,18.8442364 C13.7845061,18.6158758 14.3380006,18.3406464 14.8595819,18.0175511 C17.8484522,21.0231355 21.4995213,24.686877 21.4995213,24.686877 C21.6620791,24.8494219 21.8495692,24.9301958 22.0599968,24.9301958 C22.2704244,24.9301958 22.4579145,24.8494219 22.619475,24.686877 C22.7261848,24.581173 24.4883916,22.8270844 24.7805968,22.5358998 C24.9900271,22.3254889 25,22.0143601 25,21.9545276 C25,21.7351419 24.9262007,21.5526528 24.7805968,21.4070605"/>
</svg>
