<svg xmlns="http://www.w3.org/2000/svg" width="25" height="25" viewBox="0 0 25 25">
  <defs>
    <linearGradient id="user-icon-selected-a" x1="50%" x2="50%" y1="0%" y2="100%">
      <stop offset="0%" stop-color="#FF9833"/>
      <stop offset="100%" stop-color="#EB6A2F"/>
    </linearGradient>
  </defs>
  <path fill="url(#user-icon-selected-a)" fill-rule="evenodd" d="M22.6941,18.0742 C22.7871,18.8932 22.8331,19.7642 22.8331,20.6862 C22.8331,21.8692 22.4941,22.8832 21.8151,23.7302 C21.1371,24.5772 20.3211,24.9992 19.3661,24.9992 L5.4661,24.9992 C4.5111,24.9992 3.6951,24.5772 3.0171,23.7302 C2.3381,22.8832 2.0001,21.8692 2.0001,20.6862 C2.0001,19.7642 2.0451,18.8932 2.1381,18.0742 C2.2301,17.2542 2.4011,16.4302 2.6501,15.6002 C2.9001,14.7702 3.2171,14.0592 3.6031,13.4692 C3.9881,12.8762 4.4981,12.3942 5.1331,12.0192 C5.7681,11.6452 6.4971,11.4572 7.3221,11.4572 C8.7431,12.8472 10.4411,13.5412 12.4161,13.5412 C14.3911,13.5412 16.0891,12.8472 17.5111,11.4572 C18.3351,11.4572 19.0651,11.6452 19.7001,12.0192 C20.3341,12.3942 20.8441,12.8762 21.2291,13.4692 C21.6151,14.0592 21.9321,14.7702 22.1821,15.6002 C22.4311,16.4302 22.6021,17.2542 22.6941,18.0742 Z M19.4121,21.8032 C19.6481,21.5092 19.7531,21.1652 19.7531,20.6862 C19.7531,19.8812 19.7131,19.1182 19.6331,18.4182 C19.5621,17.7862 19.4271,17.1362 19.2331,16.4892 C19.0681,15.9412 18.8711,15.4902 18.6471,15.1482 C18.5581,15.0102 18.4481,14.8932 18.3111,14.7892 C16.5871,16.0052 14.6061,16.6212 12.4161,16.6212 C10.2251,16.6212 8.2451,16.0052 6.5211,14.7892 C6.3831,14.8942 6.2741,15.0112 6.1821,15.1532 C5.9591,15.4922 5.7641,15.9412 5.6001,16.4852 C5.4051,17.1362 5.2701,17.7872 5.1991,18.4242 C5.1201,19.1112 5.0801,19.8722 5.0801,20.6862 C5.0801,21.1662 5.1851,21.5112 5.4221,21.8062 C5.4661,21.8622 5.5011,21.8982 5.5241,21.9192 L19.3081,21.9192 C19.3311,21.8972 19.3661,21.8612 19.4121,21.8032 Z M16.8352,1.8307 C18.0562,3.0517 18.6662,4.5237 18.6662,6.2497 C18.6662,7.9757 18.0562,9.4477 16.8352,10.6687 C15.6142,11.8897 14.1422,12.4997 12.4162,12.4997 C10.6912,12.4997 9.2182,11.8897 7.9972,10.6687 C6.7762,9.4477 6.1662,7.9757 6.1662,6.2497 C6.1662,4.5237 6.7762,3.0517 7.9972,1.8307 C9.2182,0.6097 10.6912,-0.0003 12.4162,-0.0003 C14.1422,-0.0003 15.6142,0.6097 16.8352,1.8307 Z M14.6582,8.4897 C15.3002,7.8487 15.5862,7.1577 15.5862,6.2497 C15.5862,5.3417 15.3002,4.6507 14.6572,4.0087 C14.0142,3.3667 13.3242,3.0797 12.4162,3.0797 C11.5082,3.0797 10.8172,3.3667 10.1742,4.0107 C9.5322,4.6507 9.2462,5.3417 9.2462,6.2497 C9.2462,7.1577 9.5332,7.8487 10.1762,8.4917 C10.8172,9.1337 11.5082,9.4197 12.4162,9.4197 C13.3242,9.4197 14.0152,9.1337 14.6582,8.4897 Z"/>
</svg>
