<svg xmlns="http://www.w3.org/2000/svg" xmlns:xlink="http://www.w3.org/1999/xlink" width="122" height="122" viewBox="0 0 122 122">
  <defs>
    <linearGradient id="check-3-a" x1="50%" x2="50%" y1="0%" y2="100%">
      <stop offset="0%" stop-color="#5E80A8"/>
      <stop offset="100%" stop-color="#35475E"/>
    </linearGradient>
    <path id="check-3-b" d="M85.2307692,38.2115385 L90.4230769,43.4038462 L51.7692308,82.3461538 C50.9999962,83.1153885 50.1346202,83.5 49.1730769,83.5 C48.2115337,83.5 47.3461577,83.1153885 46.5769231,82.3461538 L30.4230769,66.1923077 L35.6153846,61 L49.1730769,74.5576923 L85.2307692,38.2115385 Z M61,1 C77.5385442,1 91.6730183,6.86532596 103.403846,18.5961538 C115.134674,30.3269817 121,44.4614558 121,61 C121,77.5385442 115.134674,91.6730183 103.403846,103.403846 C91.6730183,115.134674 77.5385442,121 61,121 C44.4614558,121 30.3269817,115.134674 18.5961538,103.403846 C6.86532596,91.6730183 1,77.5385442 1,61 C1,44.4614558 6.86532596,30.3269817 18.5961538,18.5961538 C30.3269817,6.86532596 44.4614558,1 61,1 Z M61,116.096154 C76.1923837,116.096154 89.1730231,110.711592 99.9423077,99.9423077 C110.711592,89.1730231 116.096154,76.1923837 116.096154,61 C116.096154,45.8076163 110.711592,32.8269769 99.9423077,22.0576923 C89.1730231,11.2884077 76.1923837,5.90384615 61,5.90384615 C45.8076163,5.90384615 32.8269769,11.2884077 22.0576923,22.0576923 C11.2884077,32.8269769 5.90384615,45.8076163 5.90384615,61 C5.90384615,76.1923837 11.2884077,89.1730231 22.0576923,99.9423077 C32.8269769,110.711592 45.8076163,116.096154 61,116.096154 Z"/>
  </defs>
  <g fill="none" fill-rule="evenodd">
    <use fill="url(#check-3-a)" xlink:href="#check-3-b"/>
    <path stroke="#35475E" stroke-width=".5" d="M49.1723712,74.2034332 L35.7921613,60.8232233 L35.6153846,60.6464466 L35.4386079,60.8232233 L30.2463002,66.015531 L30.0695235,66.1923077 L30.2463002,66.3690844 L46.4001464,82.5229305 C47.2147489,83.337533 48.1427995,83.75 49.1730769,83.75 C50.2033543,83.75 51.131405,83.337533 51.9460075,82.5229305 L90.6005096,43.5799645 L90.7759744,43.4031902 L90.5998536,43.2270695 L85.4075459,38.0347618 L85.2300635,37.8572794 L85.0532897,38.0354675 L49.1723712,74.2034332 Z M61,0.75 C44.3950938,0.75 30.1970484,6.64170594 18.4193772,18.4193772 C6.64170594,30.1970484 0.75,44.3950938 0.75,61 C0.75,77.6049062 6.64170594,91.8029516 18.4193772,103.580623 C30.1970484,115.358294 44.3950938,121.25 61,121.25 C77.6049062,121.25 91.8029516,115.358294 103.580623,103.580623 C115.358294,91.8029516 121.25,77.6049062 121.25,61 C121.25,44.3950938 115.358294,30.1970484 103.580623,18.4193772 C91.8029516,6.64170594 77.6049062,0.75 61,0.75 Z M61,115.846154 C45.8739667,115.846154 32.9569021,110.487964 22.234469,99.765531 C11.5120359,89.0430979 6.15384615,76.1260333 6.15384615,61 C6.15384615,45.8739667 11.5120359,32.9569021 22.234469,22.234469 C32.9569021,11.5120359 45.8739667,6.15384615 61,6.15384615 C76.1260333,6.15384615 89.0430979,11.5120359 99.765531,22.234469 C110.487964,32.9569021 115.846154,45.8739667 115.846154,61 C115.846154,76.1260333 110.487964,89.0430979 99.765531,99.765531 C89.0430979,110.487964 76.1260333,115.846154 61,115.846154 Z"/>
  </g>
</svg>
