<?xml version="1.0" encoding="UTF-8"?>
<svg width="24px" height="24px" viewBox="0 0 24 24" version="1.1" xmlns="http://www.w3.org/2000/svg" xmlns:xlink="http://www.w3.org/1999/xlink">
    <!-- Generator: Sketch 43.1 (39012) - http://www.bohemiancoding.com/sketch -->
    <title>Shape</title>
    <desc>Created with Sketch.</desc>
    <defs></defs>
    <g id="Page-1" stroke="none" stroke-width="1" fill="none" fill-rule="evenodd">
        <g id="check-4-checked" fill="#FE3824">
            <path d="M12,0 C15.3077088,0 18.1346037,1.17306519 20.4807692,3.51923077 C22.8269348,5.86539635 24,8.69229115 24,12 C24,15.3077088 22.8269348,18.1346037 20.4807692,20.4807692 C18.1346037,22.8269348 15.3077088,24 12,24 C8.69229115,24 5.86539635,22.8269348 3.51923077,20.4807692 C1.17306519,18.1346037 0,15.3077088 0,12 C0,8.69229115 1.17306519,5.86539635 3.51923077,3.51923077 C5.86539635,1.17306519 8.69229115,0 12,0 Z M10.1538462,16.2692308 L17.8846154,8.48076923 L16.8461538,7.44230769 L9.63461538,14.7115385 L6.92307692,12 L5.88461538,13.0384615 L9.11538462,16.2692308 C9.26923154,16.4230777 9.44230673,16.5 9.63461538,16.5 C9.82692404,16.5 9.99999923,16.4230777 10.1538462,16.2692308 Z" id="Shape"></path>
        </g>
    </g>
</svg>