<svg xmlns="http://www.w3.org/2000/svg" width="18" height="18" viewBox="0 0 18 18">
  <path fill="#FFF" fill-rule="evenodd" d="M17.7668382,15.140625 C17.8911912,15.2656256 17.9533667,15.4218741 17.9533667,15.609375 C17.9533667,15.7968759 17.8911912,15.9531244 17.7668382,16.078125 L15.9948177,17.8125 C15.8704648,17.9375006 15.7305699,18 15.5751287,18 C15.3885993,18 15.2331604,17.9375006 15.1088075,17.8125 L9,11.671875 L2.8911925,17.8125 C2.76683956,17.9375006 2.62694461,18 2.47150344,18 C2.28497403,18 2.12953519,17.9375006 2.00518225,17.8125 L0.233161757,16.078125 C0.10880882,15.9531244 0.0466332841,15.7968759 0.0466332841,15.609375 C0.0466332841,15.4218741 0.10880882,15.2656256 0.233161757,15.140625 L6.38860137,9 L0.233161757,2.90625 C-0.0777205858,2.59374844 -0.0777205858,2.28125156 0.233161757,1.96875 L1.95855013,0.1875 C2.14507954,0.062499375 2.30051838,0 2.42487132,0 C2.61140072,0 2.76683956,0.062499375 2.8911925,0.1875 L9,6.28125 L15.1088075,0.1875 C15.2953369,0.062499375 15.4507757,0 15.5751287,0 C15.7616581,0 15.9170969,0.062499375 16.0414499,0.1875 L17.7668382,1.96875 C18.0777206,2.28125156 18.0777206,2.57812359 17.7668382,2.859375 L11.6113986,8.953125 L17.7668382,15.140625 Z"/>
</svg>
