<svg xmlns="http://www.w3.org/2000/svg" width="12" height="16" viewBox="0 0 12 16">
  <g fill="#FFF" fill-rule="evenodd">
    <path d="M7.56021646 15.5L7.56021646 12.5C7.56021646 12.21875 7.34146646 12 7.06021646 12L4.06021646 12C3.77896646 12 3.56021646 12.21875 3.56021646 12.5L3.56021646 15.5C3.56021646 15.78125 3.77896646 16 4.06021646 16L7.06021646 16C7.34146646 16 7.56021646 15.78125 7.56021646 15.5zM11.5602165 5C11.5602165 2.140625 8.56021646 0 5.87271646 0 3.32584146 0 1.41959146 1.09375.0758414553 3.328125-.0647835447 3.546875-.00228354474 3.828125.200841455 3.984375L2.26334146 5.546875C2.34146646 5.609375 2.45084146 5.640625 2.56021646 5.640625 2.70084146 5.640625 2.85709146 5.578125 2.95084146 5.453125 3.68521646 4.515625 3.99771646 4.234375 4.29459146 4.015625 4.56021646 3.828125 5.07584146 3.640625 5.63834146 3.640625 6.63834146 3.640625 7.56021646 4.28125 7.56021646 4.96875 7.56021646 5.78125 7.13834146 6.1875 6.18521646 6.625 5.07584146 7.125 3.56021646 8.421875 3.56021646 9.9375L3.56021646 10.5C3.56021646 10.78125 3.77896646 11 4.06021646 11L7.06021646 11C7.34146646 11 7.56021646 10.78125 7.56021646 10.5 7.56021646 10.140625 8.01334146 9.375 8.74771646 8.953125 9.93521646 8.28125 11.5602165 7.375 11.5602165 5z"/>
  </g>
</svg>
