<svg xmlns="http://www.w3.org/2000/svg" width="38" height="38" viewBox="0 0 38 38">
  <g fill="none" fill-rule="evenodd" transform="translate(1 1)">
    <circle cx="18" cy="18" r="18" stroke="#FFF" stroke-width="2"/>
    <ellipse cx="18" cy="18" fill="#232F3E" fill-opacity=".9" stroke="#FFF" stroke-width="2" rx="12.857" ry="12.857"/>
    <path fill="#FFF" fill-opacity=".9" d="M21.7768555,21.0715681 L20.5737305,21.0715681 L20.5737305,23.1428571 L18.5092773,23.1428571 L18.5092773,21.0715681 L14.2436523,21.0715681 L14.2436523,19.6018415 L18.6254883,13.1487165 L20.5737305,13.1487165 L20.5737305,19.4309431 L21.7768555,19.4309431 L21.7768555,21.0715681 Z M18.5092773,19.4309431 L18.5092773,17.7356306 C18.5092773,17.4530771 18.5206705,17.0429249 18.543457,16.5051618 C18.5662436,15.9673987 18.5844726,15.6552274 18.5981445,15.5686384 L18.543457,15.5686384 C18.3748364,15.9423382 18.1720389,16.3069179 17.9350586,16.6623884 L16.1030273,19.4309431 L18.5092773,19.4309431 Z"/>
  </g>
</svg>
