<svg xmlns="http://www.w3.org/2000/svg" width="24" height="21" viewBox="0 0 24 21">
  <path fill="#FFF" fill-rule="evenodd" d="M11.5384615,8.9340455 C13.4495192,8.9340455 15,10.4845263 15,12.395584 C15,14.3066417 13.4495192,15.8571224 11.5384615,15.8571224 C9.62740385,15.8571224 8.07692308,14.3066417 8.07692308,12.395584 C8.07692308,10.4845263 9.62740385,8.9340455 11.5384615,8.9340455 Z M20,3.9340455 C21.6947115,3.9340455 23.0769231,5.31625704 23.0769231,7.01096858 L23.0769231,17.7801993 C23.0769231,19.4749109 21.6947115,20.8571224 20,20.8571224 L3.07692308,20.8571224 C1.38221154,20.8571224 0,19.4749109 0,17.7801993 L0,7.01096858 C0,5.31625704 1.38221154,3.9340455 3.07692308,3.9340455 L5.76923077,3.9340455 L6.38221154,2.29943011 C6.68269231,1.50616088 7.62019231,0.857122421 8.46153846,0.857122421 L14.6153846,0.857122421 C15.4567308,0.857122421 16.3942308,1.50616088 16.6947115,2.29943011 L17.3076923,3.9340455 L20,3.9340455 Z M11.5384615,17.7801993 C14.5072115,17.7801993 16.9230769,15.364334 16.9230769,12.395584 C16.9230769,9.42683396 14.5072115,7.01096858 11.5384615,7.01096858 C8.56971154,7.01096858 6.15384615,9.42683396 6.15384615,12.395584 C6.15384615,15.364334 8.56971154,17.7801993 11.5384615,17.7801993 Z"/>
</svg>
