<?xml version="1.0" encoding="UTF-8"?>
<svg width="24px" height="24px" viewBox="0 0 24 24" version="1.1" xmlns="http://www.w3.org/2000/svg" xmlns:xlink="http://www.w3.org/1999/xlink">
    <!-- Generator: Sketch 43.1 (39012) - http://www.bohemiancoding.com/sketch -->
    <title>do_not_disturb_on - material</title>
    <desc>Created with Sketch.</desc>
    <defs></defs>
    <g id="Page-1" stroke="none" stroke-width="1" fill="none" fill-rule="evenodd">
        <path d="M18.0288462,13.1826923 L18.0288462,10.8173077 L5.97115385,10.8173077 L5.97115385,13.1826923 L18.0288462,13.1826923 Z M12,0 C14.1923187,0 16.2211445,0.548071442 18.0865385,1.64423077 C19.8942398,2.6826975 21.3173025,4.10576019 22.3557692,5.91346154 C23.4519286,7.77885548 24,9.80768135 24,12 C24,14.1923187 23.4519286,16.2211445 22.3557692,18.0865385 C21.3173025,19.8942398 19.8942398,21.3173025 18.0865385,22.3557692 C16.2211445,23.4519286 14.1923187,24 12,24 C9.80768135,24 7.77885548,23.4519286 5.91346154,22.3557692 C4.10576019,21.2980716 2.6826975,19.8653937 1.64423077,18.0576923 C0.548071442,16.1922984 0,14.1730878 0,12 C0,9.82691221 0.548071442,7.80770163 1.64423077,5.94230769 C2.70192837,4.13460635 4.13460635,2.70192837 5.94230769,1.64423077 C7.80770163,0.548071442 9.82691221,0 12,0 Z" id="do_not_disturb_on---material" fill="#FE3824"></path>
    </g>
</svg>