<?xml version="1.0" encoding="UTF-8"?>
<svg width="24px" height="24px" viewBox="0 0 24 24" version="1.1" xmlns="http://www.w3.org/2000/svg" xmlns:xlink="http://www.w3.org/1999/xlink">
    <!-- Generator: Sketch 43.1 (39012) - http://www.bohemiancoding.com/sketch -->
    <title>Shape</title>
    <desc>Created with Sketch.</desc>
    <defs></defs>
    <g id="Page-1" stroke="none" stroke-width="1" fill="none" fill-rule="evenodd">
        <path d="M12,1.77635684e-15 C15.3077088,1.77635684e-15 18.1346037,1.17306519 20.4807692,3.51923077 C22.8269348,5.86539635 24,8.69229115 24,12 C24,15.3077088 22.8269348,18.1346037 20.4807692,20.4807692 C18.1346037,22.8269348 15.3077088,24 12,24 C8.69229115,24 5.86539635,22.8269348 3.51923077,20.4807692 C1.17306519,18.1346037 0,15.3077088 0,12 C0,8.69229115 1.17306519,5.86539635 3.51923077,3.51923077 C5.86539635,1.17306519 8.69229115,1.77635684e-15 12,1.77635684e-15 Z M10.2,10.75 L10.2,15.25 C10.2,15.390625 10.0851562,15.5 9.93749999,15.5 L9.41249999,15.5 C9.26484374,15.5 9.14999999,15.390625 9.14999999,15.25 L9.14999999,10.75 C9.14999999,10.609375 9.26484374,10.5 9.41249999,10.5 L9.93749999,10.5 C10.0851562,10.5 10.2,10.609375 10.2,10.75 Z M12.3,10.75 L12.3,15.25 C12.3,15.390625 12.1851562,15.5 12.0375,15.5 L11.5125,15.5 C11.3648437,15.5 11.25,15.390625 11.25,15.25 L11.25,10.75 C11.25,10.609375 11.3648437,10.5 11.5125,10.5 L12.0375,10.5 C12.1851562,10.5 12.3,10.609375 12.3,10.75 Z M14.4,10.75 L14.4,15.25 C14.4,15.390625 14.2851562,15.5 14.1375,15.5 L13.6125,15.5 C13.4648437,15.5 13.35,15.390625 13.35,15.25 L13.35,10.75 C13.35,10.609375 13.4648437,10.5 13.6125,10.5 L14.1375,10.5 C14.2851562,10.5 14.4,10.609375 14.4,10.75 Z M15.45,16.40625 L15.45,8.99999999 L8.09999999,8.99999999 L8.09999999,16.40625 C8.09999999,16.78125 8.32148437,17 8.36249999,17 L15.1875,17 C15.2285157,17 15.45,16.78125 15.45,16.40625 Z M9.93749999,7.99999999 L13.6125,7.99999999 L13.21875,7.0859375 C13.1941407,7.0546875 13.1203125,7.0078125 13.0792969,7 L10.4789062,7 C10.4296875,7.0078125 10.3640625,7.0546875 10.3394531,7.0859375 L9.93749999,7.99999999 Z M17.55,8.24999999 L17.55,8.74999999 C17.55,8.89062499 17.4351562,8.99999999 17.2875,8.99999999 L16.5,8.99999999 L16.5,16.40625 C16.5,17.265625 15.909375,18 15.1875,18 L8.36249999,18 C7.64062499,18 7.05,17.296875 7.05,16.4375 L7.05,8.99999999 L6.2625,8.99999999 C6.11484375,8.99999999 6,8.89062499 6,8.74999999 L6,8.24999999 C6,8.10937499 6.11484375,7.99999999 6.2625,7.99999999 L8.79726562,7.99999999 L9.37148437,6.6953125 C9.53554687,6.3125 10.0277344,6 10.4625,6 L13.0875,6 C13.5222657,6 14.0144531,6.3125 14.1785157,6.6953125 L14.7527344,7.99999999 L17.2875,7.99999999 C17.4351562,7.99999999 17.55,8.10937499 17.55,8.24999999 Z" id="Shape" fill="#FE3824"></path>
    </g>
</svg>