<?xml version="1.0" encoding="UTF-8"?>
<svg width="24px" height="24px" viewBox="0 0 24 24" version="1.1" xmlns="http://www.w3.org/2000/svg" xmlns:xlink="http://www.w3.org/1999/xlink">
    <!-- Generator: Sketch 43.1 (39012) - http://www.bohemiancoding.com/sketch -->
    <title></title>
    <desc>Created with Sketch.</desc>
    <defs></defs>
    <g id="Page-1" stroke="none" stroke-width="1" fill="none" fill-rule="evenodd">
        <path d="M12,0 C15.3077088,0 18.1346037,1.17306519 20.4807692,3.51923077 C22.8269348,5.86539635 24,8.69229115 24,12 C24,15.3077088 22.8269348,18.1346037 20.4807692,20.4807692 C18.1346037,22.8269348 15.3077088,24 12,24 C8.69229115,24 5.86539635,22.8269348 3.51923077,20.4807692 C1.17306519,18.1346037 0,15.3077088 0,12 C0,8.69229115 1.17306519,5.86539635 3.51923077,3.51923077 C5.86539635,1.17306519 8.69229115,0 12,0 Z M12,23.0192308 C8.96152327,23.0192308 6.36539538,21.9423185 4.21153846,19.7884615 C2.05768154,17.6346046 0.980769231,15.0384767 0.980769231,12 C0.980769231,8.96152327 2.05768154,6.36539538 4.21153846,4.21153846 C6.36539538,2.05768154 8.96152327,0.980769231 12,0.980769231 C15.0384767,0.980769231 17.6346046,2.05768154 19.7884615,4.21153846 C21.9423185,6.36539538 23.0192308,8.96152327 23.0192308,12 C23.0192308,15.0384767 21.9423185,17.6346046 19.7884615,19.7884615 C17.6346046,21.9423185 15.0384767,23.0192308 12,23.0192308 Z M18.0576923,13.3653846 L18.0576923,11 L6,11 L6,13.3653846 L18.0576923,13.3653846 Z" id="" fill="#FE3824"></path>
    </g>
</svg>