<svg xmlns="http://www.w3.org/2000/svg" width="600" height="140" viewBox="0 0 600 140">
  <g fill="none">
    <path fill="#FFF" d="M51.9,55.8 C49.9,53.7 47.7,52 45.5,50.7 C43.3,49.4 41,48.8 38.6,48.8 C35.4,48.8 32.5,49.4 30,50.6 C27.5,51.8 25.3,53.3 23.5,55.3 C21.7,57.2 20.3,59.5 19.4,62 C18.5,64.5 18,67.2 18,69.9 C18,72.6 18.5,75.3 19.4,77.8 C20.3,80.3 21.7,82.6 23.5,84.5 C25.3,86.4 27.5,88 30,89.2 C32.5,90.4 35.4,91 38.6,91 C41.3,91 43.9,90.4 46.2,89.3 C48.5,88.2 50.5,86.6 52.2,84.4 L63.9,97 C62.1,98.8 60.1,100.3 57.8,101.5 C55.5,102.8 53.2,103.8 50.9,104.6 C48.6,105.4 46.3,105.9 44.2,106.3 C42.1,106.6 40.2,106.8 38.7,106.8 C33.4,106.8 28.5,105.9 23.8,104.2 C19.1,102.5 15.1,100 11.7,96.8 C8.2,93.4 5.5,89.5 3.5,85 C1.5,80.5 0.5,75.4 0.5,69.9 C0.5,64.4 1.5,59.3 3.5,54.8 C5.5,50.3 8.2,46.4 11.6,43.2 C15,40 19,37.5 23.7,35.8 C28.4,34 33.3,33.2 38.6,33.2 C43.1,33.2 47.6,34.1 52.1,35.8 C56.6,37.5 60.6,40.2 64,43.9 L51.9,55.8 Z"/>
    <polygon fill="#FFF" points="74.7 .5 92.2 .5 92.2 104.9 74.7 104.9"/>
    <path fill="#FFF" d="M156.1 95.2L155.7 95.2C153.2 99.2 150 102.1 146.1 103.9 142.2 105.7 137.9 106.6 133.3 106.6 130.1 106.6 126.9 106.2 123.9 105.3 120.8 104.4 118.1 103.1 115.7 101.4 113.3 99.6 111.4 97.5 109.9 94.8 108.4 92.2 107.7 89.1 107.7 85.6 107.7 81.8 108.4 78.6 109.7 75.9 111.1 73.2 112.9 71 115.2 69.2 117.5 67.4 120.1 66 123.2 64.9 126.2 63.8 129.4 63 132.6 62.5 135.9 62 139.1 61.6 142.5 61.5 145.8 61.4 148.9 61.3 151.8 61.3L156.2 61.3 156.2 59.4C156.2 55 154.7 51.7 151.7 49.5 148.7 47.3 144.8 46.2 140.2 46.2 136.5 46.2 133 46.9 129.8 48.2 126.6 49.5 123.8 51.3 121.5 53.5L112.3 44.3C116.2 40.3 120.7 37.4 126 35.7 131.2 33.9 136.6 33.1 142.1 33.1 147.1 33.1 151.2 33.7 154.7 34.8 158.1 35.9 160.9 37.4 163.2 39.1 165.4 40.9 167.2 42.9 168.4 45.2 169.6 47.5 170.5 49.8 171 52.1 171.5 54.4 171.9 56.7 171.9 58.9 172 61.1 172 63 172 64.7L172 105 156.2 105 156.1 95.2 156.1 95.2 156.1 95.2zM155.1 73.5L151.5 73.5C149.1 73.5 146.3 73.6 143.3 73.8 140.3 74 137.4 74.5 134.8 75.2 132.1 75.9 129.9 77 128 78.4 126.1 79.8 125.2 81.8 125.2 84.3 125.2 86 125.6 87.3 126.3 88.5 127 89.6 128 90.6 129.1 91.3 130.3 92.1 131.6 92.6 133 93 134.5 93.3 135.9 93.5 137.4 93.5 143.4 93.5 147.9 92.1 150.8 89.2 153.7 86.3 155.1 82.4 155.1 77.4L155.1 73.5 155.1 73.5zM228.1 54.2C224.7 49.4 220.1 47 214.4 47 212.1 47 209.8 47.6 207.5 48.8 205.3 50 204.1 51.9 204.1 54.5 204.1 56.6 205 58.2 206.9 59.2 208.7 60.2 211.1 61 213.9 61.7 216.7 62.4 219.8 63.1 223 63.8 226.3 64.5 229.3 65.7 232.1 67.2 234.9 68.7 237.3 70.8 239.1 73.4 240.9 76 241.9 79.6 241.9 84.2 241.9 88.4 241 91.9 239.2 94.8 237.4 97.7 235.1 100 232.2 101.7 229.3 103.5 226.1 104.7 222.5 105.5 218.9 106.3 215.3 106.7 211.7 106.7 206.2 106.7 201.2 105.9 196.7 104.4 192.1 102.8 188 100 184.4 95.9L196.1 85C198.3 87.5 200.7 89.6 203.3 91.2 205.9 92.8 209 93.6 212.7 93.6 214 93.6 215.3 93.5 216.6 93.2 218 92.9 219.2 92.4 220.4 91.7 221.6 91 222.5 90.2 223.2 89.1 223.9 88.1 224.3 86.9 224.3 85.5 224.3 83.1 223.4 81.3 221.5 80.1 219.6 78.9 217.3 78 214.5 77.3 211.7 76.6 208.6 75.9 205.4 75.3 202.1 74.7 199.1 73.6 196.3 72.2 193.5 70.8 191.1 68.8 189.3 66.3 187.5 63.8 186.5 60.3 186.5 55.8 186.5 51.9 187.3 48.5 188.9 45.7 190.5 42.8 192.6 40.5 195.3 38.6 197.9 36.8 200.9 35.4 204.4 34.5 207.8 33.6 211.3 33.2 214.8 33.2 219.5 33.2 224.1 34 228.7 35.6 233.3 37.2 237 40 239.8 43.8L228.1 54.2zM292.9 54.2C289.5 49.4 284.9 47 279.2 47 276.9 47 274.6 47.6 272.3 48.8 270.1 50 268.9 51.9 268.9 54.5 268.9 56.6 269.8 58.2 271.7 59.2 273.5 60.2 275.9 61 278.7 61.7 281.5 62.4 284.6 63.1 287.8 63.8 291.1 64.5 294.1 65.7 296.9 67.2 299.7 68.7 302.1 70.8 303.9 73.4 305.7 76 306.7 79.6 306.7 84.2 306.7 88.4 305.8 91.9 304 94.8 302.2 97.7 299.9 100 297 101.7 294.1 103.5 290.9 104.7 287.3 105.5 283.7 106.3 280.1 106.7 276.5 106.7 271 106.7 266 105.9 261.5 104.4 256.9 102.8 252.8 100 249.2 95.9L260.9 85C263.1 87.5 265.5 89.6 268.1 91.2 270.7 92.8 273.8 93.6 277.5 93.6 278.8 93.6 280.1 93.5 281.4 93.2 282.8 92.9 284 92.4 285.2 91.7 286.4 91 287.3 90.2 288 89.1 288.7 88.1 289.1 86.9 289.1 85.5 289.1 83.1 288.2 81.3 286.3 80.1 284.4 78.9 282.1 78 279.3 77.3 276.5 76.6 273.4 75.9 270.2 75.3 266.9 74.7 263.9 73.6 261.1 72.2 258.3 70.8 255.9 68.8 254.1 66.3 252.3 63.8 251.3 60.3 251.3 55.8 251.3 51.9 252.1 48.5 253.7 45.7 255.3 42.8 257.4 40.5 260.1 38.6 262.7 36.8 265.7 35.4 269.2 34.5 272.6 33.6 276.1 33.2 279.6 33.2 284.3 33.2 288.9 34 293.5 35.6 298.1 37.2 301.8 40 304.6 43.8L292.9 54.2zM318.2 11C318.2 8.2 319.2 5.7 321.3 3.6 323.4 1.5 326 .5 329.3.5 332.6.5 335.2 1.5 337.4 3.5 339.6 5.5 340.7 8 340.7 11 340.7 14 339.6 16.5 337.4 18.5 335.2 20.5 332.5 21.5 329.3 21.5 326.1 21.5 323.4 20.5 321.3 18.4 319.2 16.3 318.2 13.8 318.2 11z"/>
    <rect width="17.5" height="70.1" x="320.7" y="34.8" fill="#FF9833"/>
    <path fill="#FF9833" d="M358.3.5L375.8.5 375.8 43.7 376.2 43.7C377.1 42.5 378.2 41.3 379.6 40.1 381 38.9 382.6 37.7 384.6 36.7 386.5 35.6 388.8 34.8 391.3 34.1 393.8 33.4 396.8 33.1 400.1 33.1 405.1 33.1 409.6 34 413.8 35.9 418 37.8 421.6 40.4 424.5 43.7 427.5 47 429.8 50.9 431.4 55.4 433.1 59.9 433.9 64.7 433.9 69.9 433.9 75.1 433.1 79.9 431.6 84.4 430 88.9 427.8 92.8 424.7 96.1 421.7 99.4 418 102 413.8 103.9 409.5 105.8 404.7 106.7 399.3 106.7 394.3 106.7 389.7 105.7 385.4 103.8 381.1 101.9 377.7 98.7 375.2 94.5L374.9 94.5 374.9 105 358.3 105 358.3.5 358.3.5zM416.4 69.8C416.4 67.1 415.9 64.4 415 61.9 414.1 59.4 412.7 57.1 410.9 55.2 409.1 53.3 406.9 51.7 404.4 50.5 401.9 49.3 399 48.7 395.8 48.7 392.6 48.7 389.7 49.3 387.2 50.5 384.7 51.7 382.5 53.2 380.7 55.2 378.9 57.1 377.5 59.4 376.6 61.9 375.7 64.4 375.2 67.1 375.2 69.8 375.2 72.5 375.7 75.2 376.6 77.7 377.5 80.2 378.9 82.5 380.7 84.4 382.5 86.3 384.7 87.9 387.2 89.1 389.7 90.3 392.6 90.9 395.8 90.9 399 90.9 401.9 90.3 404.4 89.1 406.9 87.9 409.1 86.4 410.9 84.4 412.7 82.5 414.1 80.2 415 77.7 416 75.2 416.4 72.6 416.4 69.8zM514.2 104.9L497.6 104.9 497.6 93.6 497.3 93.6C495.6 97.1 493.1 100.1 489.7 102.7 486.3 105.3 481.7 106.6 475.8 106.6 471.1 106.6 467.2 105.8 463.9 104.3 460.6 102.8 458 100.7 455.9 98.2 453.9 95.6 452.4 92.7 451.5 89.4 450.6 86.1 450.2 82.6 450.2 79L450.2 34.8 467.7 34.8 467.7 70.3C467.7 72.2 467.8 74.4 468 76.8 468.2 79.2 468.7 81.4 469.5 83.5 470.3 85.6 471.6 87.3 473.3 88.8 475 90.2 477.4 90.9 480.5 90.9 483.4 90.9 485.9 90.4 487.9 89.4 489.9 88.4 491.5 87.1 492.9 85.5 494.2 83.8 495.2 81.9 495.7 79.8 496.3 77.7 496.6 75.4 496.6 73.1L496.6 34.8 514.1 34.8 514.1 104.9 514.2 104.9 514.2 104.9zM524.6 34.8L543.9 34.8 563.5 83.4 563.8 83.4 581.3 34.8 599.5 34.8 558.4 139.9C551.8 139.9 546.4 139.9 541 139.9 541.7 138.6 550.4 115.7 551.2 113.8L554.6 105.5 524.6 34.8z"/>
  </g>
</svg>
