<svg xmlns="http://www.w3.org/2000/svg" width="25" height="25" viewBox="0 0 25 25">
  <defs>
    <linearGradient id="user-icon-selected-a" x1="50%" x2="50%" y1="0%" y2="100%">
      <stop offset="0%" stop-color="#FF9833"/>
      <stop offset="100%" stop-color="#EB6A2F"/>
    </linearGradient>
  </defs>
  <path fill="url(#user-icon-selected-a)" fill-rule="evenodd" d="M18.666,6.25 C18.666,7.976 18.056,9.448 16.835,10.669 C15.614,11.89 14.142,12.5 12.416,12.5 C10.691,12.5 9.218,11.89 7.997,10.669 C6.776,9.448 6.166,7.976 6.166,6.25 C6.166,4.524 6.776,3.052 7.997,1.831 C9.218,0.61 10.691,0 12.416,0 C14.142,0 15.614,0.61 16.835,1.831 C18.056,3.052 18.666,4.524 18.666,6.25 Z M22.833,20.6865 C22.833,21.8695 22.494,22.8835 21.815,23.7305 C21.137,24.5775 20.321,24.9995 19.366,24.9995 L5.466,24.9995 C4.511,24.9995 3.695,24.5775 3.017,23.7305 C2.338,22.8835 2,21.8695 2,20.6865 C2,19.7645 2.045,18.8935 2.138,18.0745 C2.23,17.2545 2.401,16.4305 2.65,15.6005 C2.9,14.7705 3.217,14.0595 3.603,13.4685 C3.988,12.8765 4.498,12.3945 5.133,12.0195 C5.768,11.6455 6.497,11.4575 7.322,11.4575 C8.743,12.8475 10.441,13.5415 12.416,13.5415 C14.391,13.5415 16.089,12.8475 17.511,11.4575 C18.335,11.4575 19.065,11.6455 19.7,12.0195 C20.334,12.3945 20.844,12.8765 21.229,13.4685 C21.615,14.0595 21.932,14.7705 22.182,15.6005 C22.431,16.4305 22.602,17.2545 22.694,18.0745 C22.787,18.8935 22.833,19.7645 22.833,20.6865 Z"/>
</svg>
