<svg xmlns="http://www.w3.org/2000/svg" width="49" height="24" viewBox="0 0 49 24">
  <g fill="none">
    <path fill="#24303F" d="M0,1.8 C0,1.32 0.171428571,0.891428571 0.531428571,0.531428571 C0.891428571,0.171428571 1.33714286,0 1.90285714,0 C2.46857143,0 2.91428571,0.171428571 3.29142857,0.514285714 C3.66857143,0.857142857 3.85714286,1.28571429 3.85714286,1.8 C3.85714286,2.31428571 3.66857143,2.74285714 3.29142857,3.08571429 C2.91428571,3.42857143 2.45142857,3.6 1.90285714,3.6 C1.35428571,3.6 0.891428571,3.42857143 0.531428571,3.06857143 C0.171428571,2.70857143 0,2.28 0,1.8 Z"/>
    <rect width="3" height="12.017" x=".429" y="5.88" fill="#FFF"/>
    <path fill="#FFF" d="M6.87428571 0L9.87428571 0 9.87428571 7.40571429 9.94285714 7.40571429C10.0971429 7.2 10.2857143 6.99428571 10.5257143 6.78857143 10.7657143 6.58285714 11.04 6.37714286 11.3828571 6.20571429 11.7085714 6.01714286 12.1028571 5.88 12.5314286 5.76 12.96 5.64 13.4742857 5.58857143 14.04 5.58857143 14.8971429 5.58857143 15.6685714 5.74285714 16.3885714 6.06857143 17.1085714 6.39428571 17.7257143 6.84 18.2228571 7.40571429 18.7371429 7.97142857 19.1314286 8.64 19.4057143 9.41142857 19.6971429 10.1828571 19.8342857 11.0057143 19.8342857 11.8971429 19.8342857 12.7885714 19.6971429 13.6114286 19.44 14.3828571 19.1657143 15.1542857 18.7885714 15.8228571 18.2571429 16.3885714 17.7428571 16.9542857 17.1085714 17.4 16.3885714 17.7257143 15.6514286 18.0514286 14.8285714 18.2057143 13.9028571 18.2057143 13.0457143 18.2057143 12.2571429 18.0342857 11.52 17.7085714 10.7828571 17.3828571 10.2 16.8342857 9.77142857 16.1142857L9.72 16.1142857 9.72 17.9142857 6.87428571 17.9142857 6.87428571 0 6.87428571 0zM16.8342857 11.88C16.8342857 11.4171429 16.7485714 10.9542857 16.5942857 10.5257143 16.44 10.0971429 16.2 9.70285714 15.8914286 9.37714286 15.5828571 9.05142857 15.2057143 8.77714286 14.7771429 8.57142857 14.3485714 8.36571429 13.8514286 8.26285714 13.3028571 8.26285714 12.7542857 8.26285714 12.2571429 8.36571429 11.8285714 8.57142857 11.4 8.77714286 11.0228571 9.03428571 10.7142857 9.37714286 10.4057143 9.70285714 10.1657143 10.0971429 10.0114286 10.5257143 9.85714286 10.9542857 9.77142857 11.4171429 9.77142857 11.88 9.77142857 12.3428571 9.85714286 12.8057143 10.0114286 13.2342857 10.1657143 13.6628571 10.4057143 14.0571429 10.7142857 14.3828571 11.0228571 14.7085714 11.4 14.9828571 11.8285714 15.1885714 12.2571429 15.3942857 12.7542857 15.4971429 13.3028571 15.4971429 13.8514286 15.4971429 14.3485714 15.3942857 14.7771429 15.1885714 15.2057143 14.9828571 15.5828571 14.7257143 15.8914286 14.3828571 16.2 14.0571429 16.44 13.6628571 16.5942857 13.2342857 16.7657143 12.8057143 16.8342857 12.36 16.8342857 11.88zM33.6 17.8971429L30.7542857 17.8971429 30.7542857 15.96 30.7028571 15.96C30.4114286 16.56 29.9828571 17.0742857 29.4 17.52 28.8171429 17.9657143 28.0285714 18.1885714 27.0171429 18.1885714 26.2114286 18.1885714 25.5428571 18.0514286 24.9771429 17.7942857 24.4114286 17.5371429 23.9657143 17.1771429 23.6057143 16.7485714 23.2628571 16.3028571 23.0057143 15.8057143 22.8514286 15.24 22.6971429 14.6742857 22.6285714 14.0742857 22.6285714 13.4571429L22.6285714 5.88 25.6285714 5.88 25.6285714 11.9657143C25.6285714 12.2914286 25.6457143 12.6685714 25.68 13.08 25.7142857 13.4914286 25.8 13.8685714 25.9371429 14.2285714 26.0742857 14.5885714 26.2971429 14.88 26.5885714 15.1371429 26.88 15.3771429 27.2914286 15.4971429 27.8228571 15.4971429 28.32 15.4971429 28.7485714 15.4114286 29.0914286 15.24 29.4342857 15.0685714 29.7085714 14.8457143 29.9485714 14.5714286 30.1714286 14.28 30.3428571 13.9542857 30.4285714 13.5942857 30.5314286 13.2342857 30.5828571 12.84 30.5828571 12.4457143L30.5828571 5.88 33.5828571 5.88 33.5828571 17.8971429 33.6 17.8971429 33.6 17.8971429zM35.3828571 5.88L38.6914286 5.88 42.0514286 14.2114286 42.1028571 14.2114286 45.1028571 5.88 48.2228571 5.88 41.1771429 23.8971429 38.1942857 23.8971429C38.3142857 23.6742857 39.8057143 19.7485714 39.9428571 19.4228571L40.5257143 18 35.3828571 5.88z"/>
  </g>
</svg>
