<svg xmlns="http://www.w3.org/2000/svg" width="38" height="38" viewBox="0 0 38 38">
  <g fill="none" fill-rule="evenodd" transform="translate(1 1)">
    <circle cx="18" cy="18" r="18" stroke="#FFF" stroke-width="2"/>
    <ellipse cx="18" cy="18" fill="#232F3E" fill-opacity=".9" stroke="#FFF" stroke-width="2" rx="12.857" ry="12.857"/>
    <path fill="#FFF" fill-opacity=".9" d="M21.1616211,15.3840681 C21.1616211,16.0084202 20.9724954,16.5393393 20.5942383,16.9768415 C20.2159812,17.4143437 19.685062,17.7151219 19.0014648,17.8791853 L19.0014648,17.9202009 C19.8081095,18.0204618 20.4187805,18.2654138 20.8334961,18.6550642 C21.2482117,19.0447146 21.4555664,19.5699372 21.4555664,20.2307478 C21.4555664,21.1923411 21.1069371,21.9408688 20.409668,22.4763532 C19.7123989,23.0118377 18.7166406,23.2795759 17.4223633,23.2795759 C16.3377224,23.2795759 15.3761435,23.0995647 14.5375977,22.7395368 L14.5375977,20.9416853 C14.9249694,21.1376498 15.3510719,21.2971534 15.815918,21.4202009 C16.280764,21.5432484 16.7410459,21.6047712 17.1967773,21.6047712 C17.8940465,21.6047712 18.4090153,21.4862828 18.7416992,21.2493025 C19.0743832,21.0123221 19.2407227,20.6317921 19.2407227,20.1077009 C19.2407227,19.6382975 19.0493183,19.3056185 18.6665039,19.109654 C18.2836895,18.9136895 17.6730185,18.8157087 16.8344727,18.8157087 L16.0756836,18.8157087 L16.0756836,17.1955915 L16.8481445,17.1955915 C17.622888,17.1955915 18.1891258,17.0941928 18.546875,16.8913923 C18.9046242,16.6885918 19.0834961,16.3411018 19.0834961,15.8489118 C19.0834961,15.0923976 18.6095425,14.7141462 17.6616211,14.7141462 C17.3334945,14.7141462 16.9996762,14.7688332 16.6601562,14.8782087 C16.3206363,14.9875843 15.9435242,15.17671 15.5288086,15.4455915 L14.5512695,13.9895368 C15.4627324,13.3332835 16.5496356,13.0051618 17.8120117,13.0051618 C18.8465221,13.0051618 19.6634085,13.2147952 20.2626953,13.6340681 C20.8619822,14.053341 21.1616211,14.6366685 21.1616211,15.3840681 Z"/>
  </g>
</svg>
