<svg xmlns="http://www.w3.org/2000/svg" width="38" height="38" viewBox="0 0 38 38">
  <g fill="none" fill-rule="evenodd" transform="translate(1 1)">
    <circle cx="18" cy="18" r="18" stroke="#FFF" stroke-width="2"/>
    <ellipse cx="18" cy="18" fill="#232F3E" fill-opacity=".9" stroke="#FFF" stroke-width="2" rx="12.857" ry="12.857"/>
    <path fill="#FFF" fill-opacity=".9" d="M21.5512695,23.1428571 L14.5649414,23.1428571 L14.5649414,21.6731306 L17.0737305,19.1369978 C17.8165727,18.3759263 18.3019194,17.848425 18.5297852,17.5544782 C18.7576509,17.2605315 18.9217117,16.988236 19.0219727,16.7375837 C19.1222336,16.4869314 19.1723633,16.2271684 19.1723633,15.9582868 C19.1723633,15.5572432 19.0618501,15.2587435 18.8408203,15.062779 C18.6197906,14.8668145 18.3247089,14.7688337 17.9555664,14.7688337 C17.5681947,14.7688337 17.1922219,14.8577 16.8276367,15.0354353 C16.4630516,15.2131705 16.0825215,15.4660977 15.6860352,15.7942243 L14.5375977,14.4338728 C15.0297876,14.0145998 15.4376611,13.7183788 15.7612305,13.5452009 C16.0847998,13.3720229 16.4379864,13.2387235 16.8208008,13.1452985 C17.2036152,13.0518736 17.6319963,13.0051618 18.105957,13.0051618 C18.7303091,13.0051618 19.2817359,13.119093 19.7602539,13.3469587 C20.2387719,13.5748244 20.6101875,13.8938317 20.8745117,14.30399 C21.138836,14.7141483 21.2709961,15.1835446 21.2709961,15.7121931 C21.2709961,16.1724818 21.190105,16.6042809 21.0283203,17.0076032 C20.8665356,17.4109256 20.6158871,17.8244956 20.2763672,18.2483259 C19.9368473,18.6721561 19.3387087,19.2759912 18.4819336,20.0598493 L17.1967773,21.2698103 L17.1967773,21.3655134 L21.5512695,21.3655134 L21.5512695,23.1428571 Z"/>
  </g>
</svg>
