<svg xmlns="http://www.w3.org/2000/svg" width="30" height="30" viewBox="0 0 30 30">
  <g fill="none" fill-rule="evenodd" transform="translate(1 1)">
    <circle cx="14" cy="14" r="14" stroke="#FFF" stroke-width="2"/>
    <ellipse cx="14" cy="14" fill="#D8D8D8" stroke="#FFF" stroke-width="2" rx="10" ry="10"/>
    <path fill="#FFF" fill-opacity=".9" d="M17.5512695,19 L10.5649414,19 L10.5649414,17.5302734 L13.0737305,14.9941406 C13.8165727,14.2330691 14.3019194,13.7055679 14.5297852,13.4116211 C14.7576509,13.1176743 14.9217117,12.8453789 15.0219727,12.5947266 C15.1222336,12.3440743 15.1723633,12.0843112 15.1723633,11.8154297 C15.1723633,11.414386 15.0618501,11.1158864 14.8408203,10.9199219 C14.6197906,10.7239574 14.3247089,10.6259766 13.9555664,10.6259766 C13.5681947,10.6259766 13.1922219,10.7148429 12.8276367,10.8925781 C12.4630516,11.0703134 12.0825215,11.3232405 11.6860352,11.6513672 L10.5375977,10.2910156 C11.0297876,9.8717427 11.4376611,9.5755217 11.7612305,9.40234375 C12.0847998,9.2291658 12.4379864,9.09586635 12.8208008,9.00244141 C13.2036152,8.90901646 13.6319963,8.86230469 14.105957,8.86230469 C14.7303091,8.86230469 15.2817359,8.97623584 15.7602539,9.20410156 C16.2387719,9.43196729 16.6101875,9.75097451 16.8745117,10.1611328 C17.138836,10.5712911 17.2709961,11.0406875 17.2709961,11.5693359 C17.2709961,12.0296247 17.190105,12.4614238 17.0283203,12.8647461 C16.8665356,13.2680684 16.6158871,13.6816385 16.2763672,14.1054688 C15.9368473,14.529299 15.3387087,15.1331341 14.4819336,15.9169922 L13.1967773,17.1269531 L13.1967773,17.2226562 L17.5512695,17.2226562 L17.5512695,19 Z"/>
  </g>
</svg>
