<svg xmlns="http://www.w3.org/2000/svg" width="30" height="30" viewBox="0 0 30 30">
  <g fill="none" fill-rule="evenodd" transform="translate(1 1)">
    <circle cx="14" cy="14" r="14" stroke="#FFF" stroke-width="2"/>
    <ellipse cx="14" cy="14" fill="#D8D8D8" stroke="#FFF" stroke-width="2" rx="10" ry="10"/>
    <path fill="#FFF" fill-opacity=".9" d="M17.1616211,11.2412109 C17.1616211,11.865563 16.9724954,12.3964822 16.5942383,12.8339844 C16.2159812,13.2714866 15.685062,13.5722648 15.0014648,13.7363281 L15.0014648,13.7773438 C15.8081095,13.8776047 16.4187805,14.1225566 16.8334961,14.512207 C17.2482117,14.9018574 17.4555664,15.42708 17.4555664,16.0878906 C17.4555664,17.049484 17.1069371,17.7980116 16.409668,18.3334961 C15.7123989,18.8689805 14.7166406,19.1367188 13.4223633,19.1367188 C12.3377224,19.1367188 11.3761435,18.9567075 10.5375977,18.5966797 L10.5375977,16.7988281 C10.9249694,16.9947926 11.3510719,17.1542963 11.815918,17.2773438 C12.280764,17.4003912 12.7410459,17.4619141 13.1967773,17.4619141 C13.8940465,17.4619141 14.4090153,17.3434257 14.7416992,17.1064453 C15.0743832,16.869465 15.2407227,16.4889349 15.2407227,15.9648438 C15.2407227,15.4954404 15.0493183,15.1627614 14.6665039,14.9667969 C14.2836895,14.7708324 13.6730185,14.6728516 12.8344727,14.6728516 L12.0756836,14.6728516 L12.0756836,13.0527344 L12.8481445,13.0527344 C13.622888,13.0527344 14.1891258,12.9513356 14.546875,12.7485352 C14.9046242,12.5457347 15.0834961,12.1982446 15.0834961,11.7060547 C15.0834961,10.9495405 14.6095425,10.5712891 13.6616211,10.5712891 C13.3334945,10.5712891 12.9996762,10.625976 12.6601562,10.7353516 C12.3206363,10.8447271 11.9435242,11.0338528 11.5288086,11.3027344 L10.5512695,9.84667969 C11.4627324,9.19042641 12.5496356,8.86230469 13.8120117,8.86230469 C14.8465221,8.86230469 15.6634085,9.07193801 16.2626953,9.49121094 C16.8619822,9.91048387 17.1616211,10.4938114 17.1616211,11.2412109 Z"/>
  </g>
</svg>
