<svg xmlns="http://www.w3.org/2000/svg" width="22" height="22" viewBox="0 0 22 22">
  <g fill="none" transform="translate(1 1)">
    <circle cx="10" cy="10" r="10" fill="#D8D8D8" stroke="#FFF" stroke-width="2"/>
    <path fill="#FFF" fill-opacity=".9" d="M13.5512695,15 L6.5649414,15 L6.5649414,13.5302734 L9.0737305,10.9941406 C9.8165727,10.2330691 10.3019194,9.7055679 10.5297852,9.4116211 C10.7576509,9.1176743 10.9217117,8.8453789 11.0219727,8.5947266 C11.1222336,8.3440743 11.1723633,8.0843112 11.1723633,7.8154297 C11.1723633,7.414386 11.0618501,7.1158864 10.8408203,6.9199219 C10.6197906,6.7239574 10.3247089,6.6259766 9.9555664,6.6259766 C9.5681947,6.6259766 9.1922219,6.7148429 8.8276367,6.8925781 C8.4630516,7.0703134 8.0825215,7.3232405 7.6860352,7.6513672 L6.5375977,6.2910156 C7.0297876,5.8717427 7.4376611,5.5755217 7.7612305,5.40234375 C8.0847998,5.2291658 8.4379864,5.09586635 8.8208008,5.00244141 C9.2036152,4.90901646 9.6319963,4.86230469 10.105957,4.86230469 C10.7303091,4.86230469 11.2817359,4.97623584 11.7602539,5.20410156 C12.2387719,5.43196729 12.6101875,5.75097451 12.8745117,6.1611328 C13.138836,6.5712911 13.2709961,7.0406875 13.2709961,7.5693359 C13.2709961,8.0296247 13.190105,8.4614238 13.0283203,8.8647461 C12.8665356,9.2680684 12.6158871,9.6816385 12.2763672,10.1054688 C11.9368473,10.529299 11.3387087,11.1331341 10.4819336,11.9169922 L9.1967773,13.1269531 L9.1967773,13.2226562 L13.5512695,13.2226562 L13.5512695,15 Z"/>
  </g>
</svg>
