<svg xmlns="http://www.w3.org/2000/svg" width="30" height="30" viewBox="0 0 30 30">
  <g fill="none" fill-rule="evenodd" transform="translate(1 1)">
    <circle cx="14" cy="14" r="14" stroke="#FFF" stroke-width="2"/>
    <ellipse cx="14" cy="14" fill="#D8D8D8" stroke="#FFF" stroke-width="2" rx="10" ry="10"/>
    <path fill="#FFF" fill-opacity=".9" d="M17.7768555,16.9287109 L16.5737305,16.9287109 L16.5737305,19 L14.5092773,19 L14.5092773,16.9287109 L10.2436523,16.9287109 L10.2436523,15.4589844 L14.6254883,9.00585938 L16.5737305,9.00585938 L16.5737305,15.2880859 L17.7768555,15.2880859 L17.7768555,16.9287109 Z M14.5092773,15.2880859 L14.5092773,13.5927734 C14.5092773,13.3102199 14.5206705,12.9000678 14.543457,12.3623047 C14.5662436,11.8245416 14.5844726,11.5123702 14.5981445,11.4257812 L14.543457,11.4257812 C14.3748364,11.799481 14.1720389,12.1640607 13.9350586,12.5195312 L12.1030273,15.2880859 L14.5092773,15.2880859 Z"/>
  </g>
</svg>
