<svg xmlns="http://www.w3.org/2000/svg" width="18" height="19" viewBox="0 0 18 19">
  <path fill="#FFF" fill-rule="evenodd" d="M6.39999998,7.39709098 L6.39999998,14.147091 C6.39999998,14.3580285 6.22773436,14.522091 6.00624998,14.522091 L5.21874999,14.522091 C4.99726561,14.522091 4.82499999,14.3580285 4.82499999,14.147091 L4.82499999,7.39709098 C4.82499999,7.18615348 4.99726561,7.02209098 5.21874999,7.02209098 L6.00624998,7.02209098 C6.22773436,7.02209098 6.39999998,7.18615348 6.39999998,7.39709098 Z M9.54999998,7.39709098 L9.54999998,14.147091 C9.54999998,14.3580285 9.37773435,14.522091 9.15624998,14.522091 L8.36874998,14.522091 C8.1472656,14.522091 7.97499998,14.3580285 7.97499998,14.147091 L7.97499998,7.39709098 C7.97499998,7.18615348 8.1472656,7.02209098 8.36874998,7.02209098 L9.15624998,7.02209098 C9.37773435,7.02209098 9.54999998,7.18615348 9.54999998,7.39709098 Z M12.7,7.39709098 L12.7,14.147091 C12.7,14.3580285 12.5277343,14.522091 12.30625,14.522091 L11.51875,14.522091 C11.2972656,14.522091 11.125,14.3580285 11.125,14.147091 L11.125,7.39709098 C11.125,7.18615348 11.2972656,7.02209098 11.51875,7.02209098 L12.30625,7.02209098 C12.5277343,7.02209098 12.7,7.18615348 12.7,7.39709098 Z M14.275,15.881466 L14.275,4.77209099 L3.24999999,4.77209099 L3.24999999,15.881466 C3.24999999,16.443966 3.58222655,16.772091 3.64374999,16.772091 L13.88125,16.772091 C13.9427735,16.772091 14.275,16.443966 14.275,15.881466 Z M6.00624998,3.27209099 L11.51875,3.27209099 L10.928125,1.90099725 C10.891211,1.85412225 10.7804687,1.78380975 10.7189453,1.772091 L6.81835936,1.772091 C6.74453123,1.78380975 6.64609373,1.85412225 6.60917967,1.90099725 L6.00624998,3.27209099 Z M17.425,3.64709099 L17.425,4.39709099 C17.425,4.60802849 17.2527343,4.77209099 17.03125,4.77209099 L15.85,4.77209099 L15.85,15.881466 C15.85,17.1705285 14.9640625,18.272091 13.88125,18.272091 L3.64374999,18.272091 C2.56093749,18.272091 1.675,17.2174035 1.675,15.928341 L1.675,4.77209099 L0.493749999,4.77209099 C0.272265625,4.77209099 0.1,4.60802849 0.1,4.39709099 L0.1,3.64709099 C0.1,3.43615349 0.272265625,3.27209099 0.493749999,3.27209099 L4.29589843,3.27209099 L5.15722655,1.31505975 C5.4033203,0.740841002 6.14160155,0.272091003 6.79374998,0.272091003 L10.73125,0.272091003 C11.3833985,0.272091003 12.1216797,0.740841002 12.3677735,1.31505975 L13.2291016,3.27209099 L17.03125,3.27209099 C17.2527343,3.27209099 17.425,3.43615349 17.425,3.64709099 Z"/>
</svg>
