<svg xmlns="http://www.w3.org/2000/svg" width="16" height="18" viewBox="0 0 16 18">
  <path fill="#FFF" fill-rule="evenodd" d="M11.4928977,3 L15.5,3 L15.5,4.5 L15.1036932,4.5 C14.9569121,4.53125016 14.8394891,4.59374953 14.7514205,4.6875 L14.5752841,5.109375 L13.7386364,16.40625 C13.7092802,16.812502 13.6872633,17.0937492 13.6725852,17.25 C13.6579071,17.4062508 13.5918566,17.5546868 13.4744318,17.6953125 C13.357007,17.8359382 13.2028892,17.9218748 13.0120739,17.953125 C12.8212585,17.9843752 12.5350398,18 12.1534091,18 L3.34659091,18 C2.96496021,18 2.67874148,17.9843752 2.48792614,17.953125 C2.29711079,17.9218748 2.14299301,17.8359382 2.02556818,17.6953125 C1.90814335,17.5546868 1.84209288,17.4062508 1.82741477,17.25 C1.81273667,17.0937492 1.79071984,16.812502 1.76136364,16.40625 L0.924715909,5.0625 C0.895359702,4.87499906 0.836648168,4.73437547 0.748579545,4.640625 L0.396306818,4.5 L0,4.5 L0,3 L4.00710227,3 L4.00710227,1.640625 C4.00710227,1.17187266 4.14654217,0.781251562 4.42542614,0.46875 C4.70431011,0.156248438 5.06391825,0 5.50426136,0 L9.95170455,0 C10.3920477,0 10.7589947,0.164060859 11.0525568,0.4921875 C11.3461189,0.820314141 11.4928977,1.20312281 11.4928977,1.640625 L11.4928977,3 Z M4.93181818,1.640625 C4.93181818,1.17187266 5.19602009,0.9375 5.72443182,0.9375 L9.73153409,0.9375 C10.289302,0.9375 10.5681818,1.17187266 10.5681818,1.640625 L10.5681818,3 L4.93181818,3 L4.93181818,1.640625 Z M3.66178913,16.1687659 L3.21530032,5.36906262 L5.1422777,5.36906262 L5.38548355,16.1687659 L3.66178913,16.1687659 Z M8.93444584,16.1696984 L7,16.1696984 L7,5.36999512 L8.93444584,5.36999512 L8.93444584,16.1696984 Z M12.1236883,16.1696984 L10.3999939,16.1696984 L10.6431997,5.36999512 L12.5701771,5.36999512 L12.1236883,16.1696984 Z"/>
</svg>
