<svg xmlns="http://www.w3.org/2000/svg" width="14" height="18" viewBox="0 0 14 18">
  <path fill="#FFF" fill-rule="evenodd" d="M13.5,2.296875 L13.5,3 L12.5625,3 L11.4375,16.640625 C11.4375,17.0156269 11.3046888,17.3359362 11.0390625,17.6015625 C10.7734362,17.8671888 10.4531269,18 10.078125,18 L3.46875,18 C3.09374812,18 2.77343883,17.8671888 2.5078125,17.6015625 C2.24218617,17.3359362 2.109375,17.0156269 2.109375,16.640625 L0.984375,3 L0,3 L0,2.296875 L3.75,2.296875 L3.75,1.359375 C3.75,0.984373125 3.88281117,0.664063828 4.1484375,0.3984375 C4.41406383,0.132811172 4.73437312,0 5.109375,0 L8.390625,0 C8.76562688,0 9.08593617,0.132811172 9.3515625,0.3984375 C9.61718883,0.664063828 9.75,0.984373125 9.75,1.359375 L9.75,2.296875 L13.5,2.296875 Z M4.453125,1.359375 L4.453125,2.296875 L9.046875,2.296875 L9.046875,1.359375 C9.046875,0.921872812 8.82812719,0.703125 8.390625,0.703125 L5.109375,0.703125 C4.67187281,0.703125 4.453125,0.921872812 4.453125,1.359375 Z M10.78125,16.59375 L11.859375,3 L1.6875,3 L2.765625,16.59375 L2.765625,16.640625 C2.765625,17.0781272 2.99999766,17.296875 3.46875,17.296875 L10.078125,17.296875 C10.5468773,17.296875 10.78125,17.0781272 10.78125,16.640625 L10.78125,16.59375 Z M6.421875,15.796875 L6.421875,4.5 L7.078125,4.5 L7.078125,15.796875 L6.421875,15.796875 Z M9.75,4.5 L9.234375,15.796875 L8.578125,15.796875 L9.046875,4.5 L9.75,4.5 Z M4.40625,4.5 L4.921875,15.796875 L4.265625,15.796875 L3.75,4.5 L4.40625,4.5 Z"/>
</svg>
