<?xml version="1.0" encoding="utf-8"?>
<!-- Generator: Adobe Illustrator 19.0.0, SVG Export Plug-In . SVG Version: 6.00 Build 0)  -->
<svg version="1.1" id="Layer_1" xmlns="http://www.w3.org/2000/svg" xmlns:xlink="http://www.w3.org/1999/xlink" x="0px" y="0px"
	 viewBox="-63.5 546.5 599 139.4" style="enable-background:new -63.5 546.5 599 139.4;" xml:space="preserve">
<style type="text/css">
	.st0{fill:#FFFFFF;}
	.st1{fill:#FF9833;}
	.st2{fill:none;stroke:#020202;stroke-miterlimit:10;}
</style>
<g>
	<path id="XMLID_84_" class="st0" d="M-12.1,601.8c-2-2.1-4.2-3.8-6.4-5.1c-2.2-1.3-4.5-1.9-6.9-1.9c-3.2,0-6.1,0.6-8.6,1.8
		c-2.5,1.2-4.7,2.7-6.5,4.7c-1.8,1.9-3.2,4.2-4.1,6.7s-1.4,5.2-1.4,7.9c0,2.7,0.5,5.4,1.4,7.9s2.3,4.8,4.1,6.7
		c1.8,1.9,4,3.5,6.5,4.7c2.5,1.2,5.4,1.8,8.6,1.8c2.7,0,5.3-0.6,7.6-1.7c2.3-1.1,4.3-2.7,6-4.9L-0.1,643c-1.8,1.8-3.8,3.3-6.1,4.5
		c-2.3,1.3-4.6,2.3-6.9,3.1c-2.3,0.8-4.6,1.3-6.7,1.7c-2.1,0.3-4,0.5-5.5,0.5c-5.3,0-10.2-0.9-14.9-2.6c-4.7-1.7-8.7-4.2-12.1-7.4
		c-3.5-3.4-6.2-7.3-8.2-11.8s-3-9.6-3-15.1s1-10.6,3-15.1s4.7-8.4,8.1-11.6c3.4-3.2,7.4-5.7,12.1-7.4c4.7-1.8,9.6-2.6,14.9-2.6
		c4.5,0,9,0.9,13.5,2.6s8.5,4.4,11.9,8.1L-12.1,601.8z"/>
	<path id="XMLID_82_" class="st0" d="M10.7,546.5h17.5v104.4H10.7V546.5z"/>
	<path id="XMLID_79_" class="st0" d="M92.1,641.2h-0.4c-2.5,4-5.7,6.9-9.6,8.7c-3.9,1.8-8.2,2.7-12.8,2.7c-3.2,0-6.4-0.4-9.4-1.3
		c-3.1-0.9-5.8-2.2-8.2-3.9c-2.4-1.8-4.3-3.9-5.8-6.6c-1.5-2.6-2.2-5.7-2.2-9.2c0-3.8,0.7-7,2-9.7c1.4-2.7,3.2-4.9,5.5-6.7
		s4.9-3.2,8-4.3c3-1.1,6.2-1.9,9.4-2.4c3.3-0.5,6.5-0.9,9.9-1c3.3-0.1,6.4-0.2,9.3-0.2h4.4v-1.9c0-4.4-1.5-7.7-4.5-9.9
		c-3-2.2-6.9-3.3-11.5-3.3c-3.7,0-7.2,0.7-10.4,2c-3.2,1.3-6,3.1-8.3,5.3l-9.2-9.2c3.9-4,8.4-6.9,13.7-8.6
		c5.2-1.8,10.6-2.6,16.1-2.6c5,0,9.1,0.6,12.6,1.7c3.4,1.1,6.2,2.6,8.5,4.3c2.2,1.8,4,3.8,5.2,6.1c1.2,2.3,2.1,4.6,2.6,6.9
		c0.5,2.3,0.9,4.6,0.9,6.8c0.1,2.2,0.1,4.1,0.1,5.8V651H92.2L92.1,641.2L92.1,641.2L92.1,641.2z M91.1,619.5h-3.6
		c-2.4,0-5.2,0.1-8.2,0.3s-5.9,0.7-8.5,1.4c-2.7,0.7-4.9,1.8-6.8,3.2c-1.9,1.4-2.8,3.4-2.8,5.9c0,1.7,0.4,3,1.1,4.2
		c0.7,1.1,1.7,2.1,2.8,2.8c1.2,0.8,2.5,1.3,3.9,1.7c1.5,0.3,2.9,0.5,4.4,0.5c6,0,10.5-1.4,13.4-4.3c2.9-2.9,4.3-6.8,4.3-11.8V619.5
		L91.1,619.5z"/>
	<path id="XMLID_77_" class="st0" d="M164.1,600.2c-3.4-4.8-8-7.2-13.7-7.2c-2.3,0-4.6,0.6-6.9,1.8c-2.2,1.2-3.4,3.1-3.4,5.7
		c0,2.1,0.9,3.7,2.8,4.7c1.8,1,4.2,1.8,7,2.5c2.8,0.7,5.9,1.4,9.1,2.1c3.3,0.7,6.3,1.9,9.1,3.4c2.8,1.5,5.2,3.6,7,6.2
		c1.8,2.6,2.8,6.2,2.8,10.8c0,4.2-0.9,7.7-2.7,10.6c-1.8,2.9-4.1,5.2-7,6.9c-2.9,1.8-6.1,3-9.7,3.8c-3.6,0.8-7.2,1.2-10.8,1.2
		c-5.5,0-10.5-0.8-15-2.3c-4.6-1.6-8.7-4.4-12.3-8.5l11.7-10.9c2.2,2.5,4.6,4.6,7.2,6.2c2.6,1.6,5.7,2.4,9.4,2.4
		c1.3,0,2.6-0.1,3.9-0.4c1.4-0.3,2.6-0.8,3.8-1.5c1.2-0.7,2.1-1.5,2.8-2.6c0.7-1,1.1-2.2,1.1-3.6c0-2.4-0.9-4.2-2.8-5.4
		c-1.9-1.2-4.2-2.1-7-2.8c-2.8-0.7-5.9-1.4-9.1-2c-3.3-0.6-6.3-1.7-9.1-3.1c-2.8-1.4-5.2-3.4-7-5.9s-2.8-6-2.8-10.5
		c0-3.9,0.8-7.3,2.4-10.1c1.6-2.9,3.7-5.2,6.4-7.1c2.6-1.8,5.6-3.2,9.1-4.1c3.4-0.9,6.9-1.3,10.4-1.3c4.7,0,9.3,0.8,13.9,2.4
		s8.3,4.4,11.1,8.2L164.1,600.2z"/>
	<path id="XMLID_75_" class="st0" d="M228.9,600.2c-3.4-4.8-8-7.2-13.7-7.2c-2.3,0-4.6,0.6-6.9,1.8c-2.2,1.2-3.4,3.1-3.4,5.7
		c0,2.1,0.9,3.7,2.8,4.7c1.8,1,4.2,1.8,7,2.5s5.9,1.4,9.1,2.1c3.3,0.7,6.3,1.9,9.1,3.4s5.2,3.6,7,6.2s2.8,6.2,2.8,10.8
		c0,4.2-0.9,7.7-2.7,10.6c-1.8,2.9-4.1,5.2-7,6.9c-2.9,1.8-6.1,3-9.7,3.8c-3.6,0.8-7.2,1.2-10.8,1.2c-5.5,0-10.5-0.8-15-2.3
		c-4.6-1.6-8.7-4.4-12.3-8.5l11.7-10.9c2.2,2.5,4.6,4.6,7.2,6.2c2.6,1.6,5.7,2.4,9.4,2.4c1.3,0,2.6-0.1,3.9-0.4
		c1.4-0.3,2.6-0.8,3.8-1.5c1.2-0.7,2.1-1.5,2.8-2.6c0.7-1,1.1-2.2,1.1-3.6c0-2.4-0.9-4.2-2.8-5.4c-1.9-1.2-4.2-2.1-7-2.8
		c-2.8-0.7-5.9-1.4-9.1-2c-3.3-0.6-6.3-1.7-9.1-3.1c-2.8-1.4-5.2-3.4-7-5.9s-2.8-6-2.8-10.5c0-3.9,0.8-7.3,2.4-10.1
		c1.6-2.9,3.7-5.2,6.4-7.1c2.6-1.8,5.6-3.2,9.1-4.1c3.4-0.9,6.9-1.3,10.4-1.3c4.7,0,9.3,0.8,13.9,2.4c4.6,1.6,8.3,4.4,11.1,8.2
		L228.9,600.2z"/>
	<path id="XMLID_74_" class="st0" d="M254.2,557c0-2.8,1-5.3,3.1-7.4c2.1-2.1,4.7-3.1,8-3.1c3.3,0,5.9,1,8.1,3s3.3,4.5,3.3,7.5
		s-1.1,5.5-3.3,7.5c-2.2,2-4.9,3-8.1,3s-5.9-1-8-3.1C255.2,562.3,254.2,559.8,254.2,557z"/>
	<rect id="XMLID_73_" x="256.7" y="580.8" class="st1" width="17.5" height="70.1"/>
	<path id="XMLID_69_" class="st1" d="M294.3,546.5h17.5v43.2h0.4c0.9-1.2,2-2.4,3.4-3.6c1.4-1.2,3-2.4,5-3.4
		c1.9-1.1,4.2-1.9,6.7-2.6c2.5-0.7,5.5-1,8.8-1c5,0,9.5,0.9,13.7,2.8c4.2,1.9,7.8,4.5,10.7,7.8c3,3.3,5.3,7.2,6.9,11.7
		c1.7,4.5,2.5,9.3,2.5,14.5c0,5.2-0.8,10-2.3,14.5c-1.6,4.5-3.8,8.4-6.9,11.7c-3,3.3-6.7,5.9-10.9,7.8c-4.3,1.9-9.1,2.8-14.5,2.8
		c-5,0-9.6-1-13.9-2.9s-7.7-5.1-10.2-9.3h-0.3V651h-16.6L294.3,546.5L294.3,546.5z M352.4,615.8c0-2.7-0.5-5.4-1.4-7.9
		s-2.3-4.8-4.1-6.7c-1.8-1.9-4-3.5-6.5-4.7s-5.4-1.8-8.6-1.8s-6.1,0.6-8.6,1.8s-4.7,2.7-6.5,4.7c-1.8,1.9-3.2,4.2-4.1,6.7
		s-1.4,5.2-1.4,7.9c0,2.7,0.5,5.4,1.4,7.9s2.3,4.8,4.1,6.7c1.8,1.9,4,3.5,6.5,4.7s5.4,1.8,8.6,1.8s6.1-0.6,8.6-1.8s4.7-2.7,6.5-4.7
		c1.8-1.9,3.2-4.2,4.1-6.7C352,621.2,352.4,618.6,352.4,615.8z"/>
	<path id="XMLID_67_" class="st1" d="M450.2,650.9h-16.6v-11.3h-0.3c-1.7,3.5-4.2,6.5-7.6,9.1s-8,3.9-13.9,3.9
		c-4.7,0-8.6-0.8-11.9-2.3s-5.9-3.6-8-6.1c-2-2.6-3.5-5.5-4.4-8.8s-1.3-6.8-1.3-10.4v-44.2h17.5v35.5c0,1.9,0.1,4.1,0.3,6.5
		c0.2,2.4,0.7,4.6,1.5,6.7c0.8,2.1,2.1,3.8,3.8,5.3c1.7,1.4,4.1,2.1,7.2,2.1c2.9,0,5.4-0.5,7.4-1.5s3.6-2.3,5-3.9
		c1.3-1.7,2.3-3.6,2.8-5.7c0.6-2.1,0.9-4.4,0.9-6.7v-38.3h17.5v70.1H450.2L450.2,650.9z"/>
	<path id="XMLID_65_" class="st1" d="M460.6,580.8h19.3l19.6,48.6h0.3l17.5-48.6h18.2l-41.1,105.1c-6.6,0-12,0-17.4,0
		c0.7-1.3,9.4-24.2,10.2-26.1l3.4-8.3L460.6,580.8z"/>
	<path id="XMLID_96_" class="st2" d="M509.9,646.5"/>
</g>
</svg>
