<?xml version="1.0" encoding="utf-8"?>
<!-- Generator: Adobe Illustrator 19.0.0, SVG Export Plug-In . SVG Version: 6.00 Build 0)  -->
<svg version="1.1" id="Layer_1" xmlns="http://www.w3.org/2000/svg" xmlns:xlink="http://www.w3.org/1999/xlink" x="0px" y="0px"
	 viewBox="0 0 281.3 139.4" style="enable-background:new 0 0 281.3 139.4;" xml:space="preserve">
<style type="text/css">
	.st0{fill:#24303F;}
	.st1{fill:#FFFFFF;}
	.st2{fill:none;stroke:#030303;stroke-miterlimit:10;}
</style>
<g id="XMLID_114_">
	<path id="XMLID_74_" class="st0" d="M0,10.5c0-2.8,1-5.3,3.1-7.4C5.2,1,7.8,0,11.1,0s5.9,1,8.1,3s3.3,4.5,3.3,7.5S21.4,16,19.2,18
		s-4.9,3-8.1,3s-5.9-1-8-3.1C1,15.8,0,13.3,0,10.5z"/>
	<rect id="XMLID_73_" x="2.5" y="34.3" class="st1" width="17.5" height="70.1"/>
	<path id="XMLID_69_" class="st1" d="M40.1,0h17.5v43.2H58c0.9-1.2,2-2.4,3.4-3.6s3-2.4,5-3.4c1.9-1.1,4.2-1.9,6.7-2.6s5.5-1,8.8-1
		c5,0,9.5,0.9,13.7,2.8s7.8,4.5,10.7,7.8c3,3.3,5.3,7.2,6.9,11.7c1.7,4.5,2.5,9.3,2.5,14.5s-0.8,10-2.3,14.5
		c-1.6,4.5-3.8,8.4-6.9,11.7c-3,3.3-6.7,5.9-10.9,7.8c-4.3,1.9-9.1,2.8-14.5,2.8c-5,0-9.6-1-13.9-2.9S59.5,98.2,57,94h-0.3v10.5
		H40.1L40.1,0L40.1,0z M98.2,69.3c0-2.7-0.5-5.4-1.4-7.9s-2.3-4.8-4.1-6.7c-1.8-1.9-4-3.5-6.5-4.7s-5.4-1.8-8.6-1.8S71.5,48.8,69,50
		s-4.7,2.7-6.5,4.7c-1.8,1.9-3.2,4.2-4.1,6.7S57,66.6,57,69.3c0,2.7,0.5,5.4,1.4,7.9s2.3,4.8,4.1,6.7c1.8,1.9,4,3.5,6.5,4.7
		s5.4,1.8,8.6,1.8s6.1-0.6,8.6-1.8s4.7-2.7,6.5-4.7c1.8-1.9,3.2-4.2,4.1-6.7C97.8,74.7,98.2,72.1,98.2,69.3z"/>
	<path id="XMLID_67_" class="st1" d="M196,104.4h-16.6V93.1h-0.3c-1.7,3.5-4.2,6.5-7.6,9.1s-8,3.9-13.9,3.9c-4.7,0-8.6-0.8-11.9-2.3
		s-5.9-3.6-8-6.1c-2-2.6-3.5-5.5-4.4-8.8s-1.3-6.8-1.3-10.4V34.3h17.5v35.5c0,1.9,0.1,4.1,0.3,6.5c0.2,2.4,0.7,4.6,1.5,6.7
		s2.1,3.8,3.8,5.3c1.7,1.4,4.1,2.1,7.2,2.1c2.9,0,5.4-0.5,7.4-1.5s3.6-2.3,5-3.9c1.3-1.7,2.3-3.6,2.8-5.7c0.6-2.1,0.9-4.4,0.9-6.7
		V34.3h17.5v70.1L196,104.4L196,104.4z"/>
	<path id="XMLID_1_" class="st1" d="M206.4,34.3h19.3l19.6,48.6h0.3l17.5-48.6h18.2l-41.1,105.1c-6.6,0-12,0-17.4,0
		c0.7-1.3,9.4-24.2,10.2-26.1l3.4-8.3L206.4,34.3z"/>
	<path id="XMLID_96_" class="st2" d="M255.7,100"/>
</g>
</svg>
